<svg xmlns="http://www.w3.org/2000/svg" width="992.0283203125" height="932.027587890625" viewBox="-530.9755859375 -499.63116455078125 992.0283203125 932.027587890625"><title>Neo4j Graph Visualization</title><desc>Created using Neo4j (http://www.neo4j.com/)</desc><g class="layer relationships"><g class="relationship" transform="translate(-17.469099891887726 206.14835761694758) rotate(272.62259704409496)"><path class="b-outline" fill="#A5ABB6" stroke="none" d="M 25 0.5 L 97.46968923436938 0.5 L 97.46968923436938 -0.5 L 25 -0.5 Z M 142.46968923436938 0.5 L 214.93937846873877 0.5 L 214.93937846873877 3.5 L 221.93937846873877 0 L 214.93937846873877 -3.5 L 214.93937846873877 -0.5 L 142.46968923436938 -0.5 Z"/><text text-anchor="middle" pointer-events="none" font-size="8px" fill="#000000" x="119.96968923436938" y="3" font-family="Helvetica Neue, Helvetica, Arial, sans-serif">PublishedIn</text></g><g class="relationship" transform="translate(-17.469099891887726 206.14835761694758) rotate(462.3871561559889)"><path class="b-outline" fill="#A5ABB6" stroke="none" d="M 25 0.5 L 68.3037000737652 0.5 L 68.3037000737652 -0.5 L 25 -0.5 Z M 113.3037000737652 0.5 L 156.6074001475304 0.5 L 156.6074001475304 3.5 L 163.6074001475304 0 L 156.6074001475304 -3.5 L 156.6074001475304 -0.5 L 113.3037000737652 -0.5 Z"/><text text-anchor="middle" pointer-events="none" font-size="8px" fill="#000000" x="90.8037000737652" y="3" transform="rotate(180 90.8037000737652 0)" font-family="Helvetica Neue, Helvetica, Arial, sans-serif">PublishedIn</text></g><g class="relationship" transform="translate(-17.469099891887726 206.14835761694758) rotate(252.4464304478472)"><path class="b-outline" fill="#A5ABB6" stroke="none" d="M 25 0.5 L 60.540686561711325 0.5 L 60.540686561711325 -0.5 L 25 -0.5 Z M 115.54068656171133 0.5 L 151.08137312342265 0.5 L 151.08137312342265 3.5 L 158.08137312342265 0 L 151.08137312342265 -3.5 L 151.08137312342265 -0.5 L 115.54068656171133 -0.5 Z"/><text text-anchor="middle" pointer-events="none" font-size="8px" fill="#000000" x="88.04068656171133" y="3" transform="rotate(180 88.04068656171133 0)" font-family="Helvetica Neue, Helvetica, Arial, sans-serif">hasMeshTopic</text></g><g class="relationship" transform="translate(-6.169901810840279 -40.53237685830945) rotate(450.8189968300784)"><path class="b-outline" fill="#A5ABB6" stroke="none" d="M 25 0.5 L 53.28756585441887 0.5 L 53.28756585441887 -0.5 L 25 -0.5 Z M 87.28756585441887 0.5 L 115.57513170883774 0.5 L 115.57513170883774 3.5 L 122.57513170883774 0 L 115.57513170883774 -3.5 L 115.57513170883774 -0.5 L 87.28756585441887 -0.5 Z"/><text text-anchor="middle" pointer-events="none" font-size="8px" fill="#000000" x="70.28756585441887" y="3" transform="rotate(180 70.28756585441887 0)" font-family="Helvetica Neue, Helvetica, Arial, sans-serif">refersTo</text></g><g class="relationship" transform="translate(-57.928477314535115 390.36505113027283) rotate(538.4765663833244)"><path class="b-outline" fill="#A5ABB6" stroke="none" d="M 25 0.5 L 64.09673299746127 0.5 L 64.09673299746127 -0.5 L 25 -0.5 Z M 98.09673299746127 0.5 L 137.19346599492255 0.5 L 137.19346599492255 3.5 L 144.19346599492255 0 L 137.19346599492255 -3.5 L 137.19346599492255 -0.5 L 98.09673299746127 -0.5 Z"/><text text-anchor="middle" pointer-events="none" font-size="8px" fill="#000000" x="81.09673299746127" y="3" transform="rotate(180 81.09673299746127 0)" font-family="Helvetica Neue, Helvetica, Arial, sans-serif">refersTo</text></g><g class="relationship" transform="translate(157.82609883174172 116.6174342153467) rotate(396.6826184907765)"><path class="b-outline" fill="#A5ABB6" stroke="none" d="M 25 0.5 L 45.37023914268423 0.5 L 45.37023914268423 -0.5 L 25 -0.5 Z M 90.37023914268423 0.5 L 110.74047828536845 0.5 L 110.74047828536845 3.5 L 117.74047828536845 0 L 110.74047828536845 -3.5 L 110.74047828536845 -0.5 L 90.37023914268423 -0.5 Z"/><text text-anchor="middle" pointer-events="none" font-size="8px" fill="#000000" x="67.87023914268423" y="3" font-family="Helvetica Neue, Helvetica, Arial, sans-serif">PublishedIn</text></g><g class="relationship" transform="translate(157.82609883174172 116.6174342153467) rotate(223.77875298872186)"><path class="b-outline" fill="#A5ABB6" stroke="none" d="M 25 0.5 L 87.56798772898944 0.5 L 87.56798772898944 -0.5 L 25 -0.5 Z M 132.56798772898944 0.5 L 195.13597545797887 0.5 L 195.13597545797887 3.5 L 202.13597545797887 0 L 195.13597545797887 -3.5 L 195.13597545797887 -0.5 L 132.56798772898944 -0.5 Z"/><text text-anchor="middle" pointer-events="none" font-size="8px" fill="#000000" x="110.06798772898944" y="3" transform="rotate(180 110.06798772898944 0)" font-family="Helvetica Neue, Helvetica, Arial, sans-serif">PublishedIn</text></g><g class="relationship" transform="translate(157.82609883174172 116.6174342153467) rotate(200.24670687735545)"><path class="b-outline" fill="#A5ABB6" stroke="none" d="M 25 0.5 L 91.84656733067311 0.5 L 91.84656733067311 -0.5 L 25 -0.5 Z M 146.8465673306731 0.5 L 213.69313466134622 0.5 L 213.69313466134622 3.5 L 220.69313466134622 0 L 213.69313466134622 -3.5 L 213.69313466134622 -0.5 L 146.8465673306731 -0.5 Z"/><text text-anchor="middle" pointer-events="none" font-size="8px" fill="#000000" x="119.34656733067311" y="3" transform="rotate(180 119.34656733067311 0)" font-family="Helvetica Neue, Helvetica, Arial, sans-serif">hasMeshTopic</text></g><g class="relationship" transform="translate(272.29781110704056 201.88801079306745) rotate(377.01174989277973)"><path class="b-outline" fill="#A5ABB6" stroke="none" d="M 25 0.5 L 55.560739965150646 0.5 L 55.560739965150646 -0.5 L 25 -0.5 Z M 89.56073996515065 0.5 L 120.12147993030129 0.5 L 120.12147993030129 3.5 L 127.12147993030129 0 L 120.12147993030129 -3.5 L 120.12147993030129 -0.5 L 89.56073996515065 -0.5 Z"/><text text-anchor="middle" pointer-events="none" font-size="8px" fill="#000000" x="72.56073996515065" y="3" font-family="Helvetica Neue, Helvetica, Arial, sans-serif">refersTo</text></g><g class="relationship" transform="translate(80.38667996108539 55.86749093187984) rotate(228.07961556051202)"><path class="b-outline" fill="#A5ABB6" stroke="none" d="M 25 0.5 L 38.77842302419461 0.5 L 38.77842302419461 -0.5 L 25 -0.5 Z M 83.77842302419461 0.5 L 97.55684604838922 0.5 L 97.55684604838922 3.5 L 104.55684604838922 0 L 97.55684604838922 -3.5 L 97.55684604838922 -0.5 L 83.77842302419461 -0.5 Z"/><text text-anchor="middle" pointer-events="none" font-size="8px" fill="#000000" x="61.27842302419461" y="3" transform="rotate(180 61.27842302419461 0)" font-family="Helvetica Neue, Helvetica, Arial, sans-serif">PublishedIn</text></g><g class="relationship" transform="translate(80.38667996108539 55.86749093187984) rotate(339.0818930939088)"><path class="b-outline" fill="#A5ABB6" stroke="none" d="M 25 0.5 L 82.981373482326 0.5 L 82.981373482326 -0.5 L 25 -0.5 Z M 127.981373482326 0.5 L 185.962746964652 0.5 L 185.962746964652 3.5 L 192.962746964652 0 L 185.962746964652 -3.5 L 185.962746964652 -0.5 L 127.981373482326 -0.5 Z"/><text text-anchor="middle" pointer-events="none" font-size="8px" fill="#000000" x="105.481373482326" y="3" font-family="Helvetica Neue, Helvetica, Arial, sans-serif">PublishedIn</text></g><g class="relationship" transform="translate(80.38667996108539 55.86749093187984) rotate(189.0113441387656)"><path class="b-outline" fill="#A5ABB6" stroke="none" d="M 25 0.5 L 46.49278578193116 0.5 L 46.49278578193116 -0.5 L 25 -0.5 Z M 101.49278578193116 0.5 L 122.98557156386232 0.5 L 122.98557156386232 3.5 L 129.98557156386232 0 L 122.98557156386232 -3.5 L 122.98557156386232 -0.5 L 101.49278578193116 -0.5 Z"/><text text-anchor="middle" pointer-events="none" font-size="8px" fill="#000000" x="73.99278578193116" y="3" transform="rotate(180 73.99278578193116 0)" font-family="Helvetica Neue, Helvetica, Arial, sans-serif">hasMeshTopic</text></g><g class="relationship" transform="translate(283.9838705214456 -21.952449059778388) rotate(342.5871775432588)"><path class="b-outline" fill="#A5ABB6" stroke="none" d="M 25 0.5 L 57.09012409938116 0.5 L 57.09012409938116 -0.5 L 25 -0.5 Z M 91.09012409938116 0.5 L 123.18024819876231 0.5 L 123.18024819876231 3.5 L 130.1802481987623 0 L 123.18024819876231 -3.5 L 123.18024819876231 -0.5 L 91.09012409938116 -0.5 Z"/><text text-anchor="middle" pointer-events="none" font-size="8px" fill="#000000" x="74.09012409938116" y="3" font-family="Helvetica Neue, Helvetica, Arial, sans-serif">refersTo</text></g><g class="relationship" transform="translate(95.33526192576561 -42.45364354535319) rotate(366.20222048438137)"><path class="b-outline" fill="#A5ABB6" stroke="none" d="M 25 0.5 L 68.87965601279 0.5 L 68.87965601279 -0.5 L 25 -0.5 Z M 113.87965601279 0.5 L 157.75931202558 0.5 L 157.75931202558 3.5 L 164.75931202558 0 L 157.75931202558 -3.5 L 157.75931202558 -0.5 L 113.87965601279 -0.5 Z"/><text text-anchor="middle" pointer-events="none" font-size="8px" fill="#000000" x="91.37965601279" y="3" font-family="Helvetica Neue, Helvetica, Arial, sans-serif">PublishedIn</text></g><g class="relationship" transform="translate(95.33526192576561 -42.45364354535319) rotate(538.9156479786013)"><path class="b-outline" fill="#A5ABB6" stroke="none" d="M 25 0.5 L 25.761672379064485 0.5 L 25.761672379064485 -0.5 L 25 -0.5 Z M 68.76167237906449 0.5 L 69.52334475812897 0.5 L 69.52334475812897 3.5 L 76.52334475812897 0 L 69.52334475812897 -3.5 L 69.52334475812897 -0.5 L 68.76167237906449 -0.5 Z"/><text text-anchor="middle" pointer-events="none" font-size="8px" fill="#000000" x="47.261672379064485" y="3" transform="rotate(180 47.261672379064485 0)" font-family="Helvetica Neue, Helvetica, Arial, sans-serif">Publishe…</text></g><g class="relationship" transform="translate(95.33526192576561 -42.45364354535319) rotate(516.2172579842397)"><path class="b-outline" fill="#A5ABB6" stroke="none" d="M 25 0.5 L 60.80672967098948 0.5 L 60.80672967098948 -0.5 L 25 -0.5 Z M 115.80672967098948 0.5 L 151.61345934197897 0.5 L 151.61345934197897 3.5 L 158.61345934197897 0 L 151.61345934197897 -3.5 L 151.61345934197897 -0.5 L 115.80672967098948 -0.5 Z"/><text text-anchor="middle" pointer-events="none" font-size="8px" fill="#000000" x="88.30672967098948" y="3" transform="rotate(180 88.30672967098948 0)" font-family="Helvetica Neue, Helvetica, Arial, sans-serif">hasMeshTopic</text></g><g class="relationship" transform="translate(172.03566860096436 19.50504672046152) rotate(421.20090236232636)"><path class="b-outline" fill="#A5ABB6" stroke="none" d="M 25 0.5 L 78.06253264722395 0.5 L 78.06253264722395 -0.5 L 25 -0.5 Z M 123.06253264722395 0.5 L 176.1250652944479 0.5 L 176.1250652944479 3.5 L 183.1250652944479 0 L 176.1250652944479 -3.5 L 176.1250652944479 -0.5 L 123.06253264722395 -0.5 Z"/><text text-anchor="middle" pointer-events="none" font-size="8px" fill="#000000" x="100.56253264722395" y="3" font-family="Helvetica Neue, Helvetica, Arial, sans-serif">PublishedIn</text></g><g class="relationship" transform="translate(172.03566860096436 19.50504672046152) rotate(198.61866150666685)"><path class="b-outline" fill="#A5ABB6" stroke="none" d="M 25 0.5 L 68.02355762756139 0.5 L 68.02355762756139 -0.5 L 25 -0.5 Z M 113.02355762756139 0.5 L 156.04711525512278 0.5 L 156.04711525512278 3.5 L 163.04711525512278 0 L 156.04711525512278 -3.5 L 156.04711525512278 -0.5 L 113.02355762756139 -0.5 Z"/><text text-anchor="middle" pointer-events="none" font-size="8px" fill="#000000" x="90.52355762756139" y="3" transform="rotate(180 90.52355762756139 0)" font-family="Helvetica Neue, Helvetica, Arial, sans-serif">PublishedIn</text></g><g class="relationship" transform="translate(172.03566860096436 19.50504672046152) rotate(537.1724006285826)"><path class="b-outline" fill="#A5ABB6" stroke="none" d="M 25 0.5 L 91.50997069242149 0.5 L 91.50997069242149 -0.5 L 25 -0.5 Z M 146.5099706924215 0.5 L 213.01994138484298 0.5 L 213.01994138484298 3.5 L 220.01994138484298 0 L 213.01994138484298 -3.5 L 213.01994138484298 -0.5 L 146.5099706924215 -0.5 Z"/><text text-anchor="middle" pointer-events="none" font-size="8px" fill="#000000" x="119.00997069242149" y="3" transform="rotate(180 119.00997069242149 0)" font-family="Helvetica Neue, Helvetica, Arial, sans-serif">hasMeshTopic</text></g><g class="relationship" transform="translate(139.6635228718064 -130.64168519144658) rotate(289.4161481639401)"><path class="b-outline" fill="#A5ABB6" stroke="none" d="M 25 0.5 L 57.394408949184864 0.5 L 57.394408949184864 -0.5 L 25 -0.5 Z M 102.39440894918486 0.5 L 134.78881789836973 0.5 L 134.78881789836973 3.5 L 141.78881789836973 0 L 134.78881789836973 -3.5 L 134.78881789836973 -0.5 L 102.39440894918486 -0.5 Z"/><text text-anchor="middle" pointer-events="none" font-size="8px" fill="#000000" x="79.89440894918486" y="3" font-family="Helvetica Neue, Helvetica, Arial, sans-serif">PublishedIn</text></g><g class="relationship" transform="translate(139.6635228718064 -130.64168519144658) rotate(508.28841222419464)"><path class="b-outline" fill="#A5ABB6" stroke="none" d="M 25 0.5 L 59.71329418903693 0.5 L 59.71329418903693 -0.5 L 25 -0.5 Z M 104.71329418903693 0.5 L 139.42658837807386 0.5 L 139.42658837807386 3.5 L 146.42658837807386 0 L 139.42658837807386 -3.5 L 139.42658837807386 -0.5 L 104.71329418903693 -0.5 Z"/><text text-anchor="middle" pointer-events="none" font-size="8px" fill="#000000" x="82.21329418903693" y="3" transform="rotate(180 82.21329418903693 0)" font-family="Helvetica Neue, Helvetica, Arial, sans-serif">PublishedIn</text></g><g class="relationship" transform="translate(139.6635228718064 -130.64168519144658) rotate(502.62038039088117)"><path class="b-outline" fill="#A5ABB6" stroke="none" d="M 25 0.5 L 102.61521507901557 0.5 L 102.61521507901557 -0.5 L 25 -0.5 Z M 157.61521507901557 0.5 L 235.23043015803114 0.5 L 235.23043015803114 3.5 L 242.23043015803114 0 L 235.23043015803114 -3.5 L 235.23043015803114 -0.5 L 157.61521507901557 -0.5 Z"/><text text-anchor="middle" pointer-events="none" font-size="8px" fill="#000000" x="130.11521507901557" y="3" transform="rotate(180 130.11521507901557 0)" font-family="Helvetica Neue, Helvetica, Arial, sans-serif">hasMeshTopic</text></g><g class="relationship" transform="translate(195.10862177860602 -287.945057002577) rotate(266.1401399073476)"><path class="b-outline" fill="#A5ABB6" stroke="none" d="M 25 0.5 L 57.81319400380643 0.5 L 57.81319400380643 -0.5 L 25 -0.5 Z M 91.81319400380643 0.5 L 124.62638800761286 0.5 L 124.62638800761286 3.5 L 131.62638800761286 0 L 124.62638800761286 -3.5 L 124.62638800761286 -0.5 L 91.81319400380643 -0.5 Z"/><text text-anchor="middle" pointer-events="none" font-size="8px" fill="#000000" x="74.81319400380643" y="3" transform="rotate(180 74.81319400380643 0)" font-family="Helvetica Neue, Helvetica, Arial, sans-serif">refersTo</text></g><g class="relationship" transform="translate(-41.73318928499051 -201.9486879962369) rotate(437.5750789219338)"><path class="b-outline" fill="#A5ABB6" stroke="none" d="M 25 0.5 L 56.64377308264861 0.5 L 56.64377308264861 -0.5 L 25 -0.5 Z M 101.64377308264861 0.5 L 133.28754616529721 0.5 L 133.28754616529721 3.5 L 140.28754616529721 0 L 133.28754616529721 -3.5 L 133.28754616529721 -0.5 L 101.64377308264861 -0.5 Z"/><text text-anchor="middle" pointer-events="none" font-size="8px" fill="#000000" x="79.14377308264861" y="3" font-family="Helvetica Neue, Helvetica, Arial, sans-serif">PublishedIn</text></g><g class="relationship" transform="translate(-41.73318928499051 -201.9486879962369) rotate(296.15323404580187)"><path class="b-outline" fill="#A5ABB6" stroke="none" d="M 25 0.5 L 67.19347955934195 0.5 L 67.19347955934195 -0.5 L 25 -0.5 Z M 112.19347955934195 0.5 L 154.3869591186839 0.5 L 154.3869591186839 3.5 L 161.3869591186839 0 L 154.3869591186839 -3.5 L 154.3869591186839 -0.5 L 112.19347955934195 -0.5 Z"/><text text-anchor="middle" pointer-events="none" font-size="8px" fill="#000000" x="89.69347955934195" y="3" font-family="Helvetica Neue, Helvetica, Arial, sans-serif">PublishedIn</text></g><g class="relationship" transform="translate(-41.73318928499051 -201.9486879962369) rotate(457.54980291506797)"><path class="b-outline" fill="#A5ABB6" stroke="none" d="M 25 0.5 L 86.79152427779024 0.5 L 86.79152427779024 -0.5 L 25 -0.5 Z M 141.79152427779024 0.5 L 203.5830485555805 0.5 L 203.5830485555805 3.5 L 210.5830485555805 0 L 203.5830485555805 -3.5 L 203.5830485555805 -0.5 L 141.79152427779024 -0.5 Z"/><text text-anchor="middle" pointer-events="none" font-size="8px" fill="#000000" x="114.29152427779024" y="3" transform="rotate(180 114.29152427779024 0)" font-family="Helvetica Neue, Helvetica, Arial, sans-serif">hasMeshTopic</text></g><g class="relationship" transform="translate(40.4212142781074 -369.253058843808) rotate(332.5229769335267)"><path class="b-outline" fill="#A5ABB6" stroke="none" d="M 25 0.5 L 60.73566031096506 0.5 L 60.73566031096506 -0.5 L 25 -0.5 Z M 94.73566031096506 0.5 L 130.47132062193012 0.5 L 130.47132062193012 3.5 L 137.47132062193012 0 L 130.47132062193012 -3.5 L 130.47132062193012 -0.5 L 94.73566031096506 -0.5 Z"/><text text-anchor="middle" pointer-events="none" font-size="8px" fill="#000000" x="77.73566031096506" y="3" font-family="Helvetica Neue, Helvetica, Arial, sans-serif">refersTo</text></g><g class="relationship" transform="translate(-127.27736455634114 -152.35453729168896) rotate(402.7172199237728)"><path class="b-outline" fill="#A5ABB6" stroke="none" d="M 25 0.5 L 56.418464400644694 0.5 L 56.418464400644694 -0.5 L 25 -0.5 Z M 101.4184644006447 0.5 L 132.8369288012894 0.5 L 132.8369288012894 3.5 L 139.8369288012894 0 L 132.8369288012894 -3.5 L 132.8369288012894 -0.5 L 101.4184644006447 -0.5 Z"/><text text-anchor="middle" pointer-events="none" font-size="8px" fill="#000000" x="78.9184644006447" y="3" font-family="Helvetica Neue, Helvetica, Arial, sans-serif">PublishedIn</text></g><g class="relationship" transform="translate(-127.27736455634114 -152.35453729168896) rotate(247.46847886039058)"><path class="b-outline" fill="#A5ABB6" stroke="none" d="M 25 0.5 L 66.91878993563232 0.5 L 66.91878993563232 -0.5 L 25 -0.5 Z M 111.91878993563232 0.5 L 153.83757987126464 0.5 L 153.83757987126464 3.5 L 160.83757987126464 0 L 153.83757987126464 -3.5 L 153.83757987126464 -0.5 L 111.91878993563232 -0.5 Z"/><text text-anchor="middle" pointer-events="none" font-size="8px" fill="#000000" x="89.41878993563232" y="3" transform="rotate(180 89.41878993563232 0)" font-family="Helvetica Neue, Helvetica, Arial, sans-serif">PublishedIn</text></g><g class="relationship" transform="translate(-127.27736455634114 -152.35453729168896) rotate(433.47024368844836)"><path class="b-outline" fill="#A5ABB6" stroke="none" d="M 25 0.5 L 64.93824356874516 0.5 L 64.93824356874516 -0.5 L 25 -0.5 Z M 119.93824356874516 0.5 L 159.87648713749033 0.5 L 159.87648713749033 3.5 L 166.87648713749033 0 L 159.87648713749033 -3.5 L 159.87648713749033 -0.5 L 119.93824356874516 -0.5 Z"/><text text-anchor="middle" pointer-events="none" font-size="8px" fill="#000000" x="92.43824356874516" y="3" font-family="Helvetica Neue, Helvetica, Arial, sans-serif">hasMeshTopic</text></g><g class="relationship" transform="translate(-198.48877241566186 -324.006922894401) rotate(258.7223480604078)"><path class="b-outline" fill="#A5ABB6" stroke="none" d="M 25 0.5 L 54.25557678248532 0.5 L 54.25557678248532 -0.5 L 25 -0.5 Z M 88.25557678248532 0.5 L 117.51115356497064 0.5 L 117.51115356497064 3.5 L 124.51115356497064 0 L 117.51115356497064 -3.5 L 117.51115356497064 -0.5 L 88.25557678248532 -0.5 Z"/><text text-anchor="middle" pointer-events="none" font-size="8px" fill="#000000" x="71.25557678248532" y="3" transform="rotate(180 71.25557678248532 0)" font-family="Helvetica Neue, Helvetica, Arial, sans-serif">refersTo</text></g><g class="relationship" transform="translate(-217.3989198200959 -110.77958521322674) rotate(531.2486195788592)"><path class="b-outline" fill="#A5ABB6" stroke="none" d="M 25 0.5 L 52.632995208411046 0.5 L 52.632995208411046 -0.5 L 25 -0.5 Z M 97.63299520841105 0.5 L 125.26599041682209 0.5 L 125.26599041682209 3.5 L 132.2659904168221 0 L 125.26599041682209 -3.5 L 125.26599041682209 -0.5 L 97.63299520841105 -0.5 Z"/><text text-anchor="middle" pointer-events="none" font-size="8px" fill="#000000" x="75.13299520841105" y="3" transform="rotate(180 75.13299520841105 0)" font-family="Helvetica Neue, Helvetica, Arial, sans-serif">PublishedIn</text></g><g class="relationship" transform="translate(-217.3989198200959 -110.77958521322674) rotate(378.39527813815164)"><path class="b-outline" fill="#A5ABB6" stroke="none" d="M 25 0.5 L 85.30180628679572 0.5 L 85.30180628679572 -0.5 L 25 -0.5 Z M 130.30180628679574 0.5 L 190.60361257359145 0.5 L 190.60361257359145 3.5 L 197.60361257359145 0 L 190.60361257359145 -3.5 L 190.60361257359145 -0.5 L 130.30180628679574 -0.5 Z"/><text text-anchor="middle" pointer-events="none" font-size="8px" fill="#000000" x="107.80180628679572" y="3" font-family="Helvetica Neue, Helvetica, Arial, sans-serif">PublishedIn</text></g><g class="relationship" transform="translate(-217.3989198200959 -110.77958521322674) rotate(404.53274283814164)"><path class="b-outline" fill="#A5ABB6" stroke="none" d="M 25 0.5 L 70.50312478920769 0.5 L 70.50312478920769 -0.5 L 25 -0.5 Z M 125.50312478920769 0.5 L 171.00624957841538 0.5 L 171.00624957841538 3.5 L 178.00624957841538 0 L 171.00624957841538 -3.5 L 171.00624957841538 -0.5 L 125.50312478920769 -0.5 Z"/><text text-anchor="middle" pointer-events="none" font-size="8px" fill="#000000" x="98.00312478920769" y="3" font-family="Helvetica Neue, Helvetica, Arial, sans-serif">hasMeshTopic</text></g><g class="relationship" transform="translate(-372.833995214142 -86.85200533077362) rotate(210.16678207283326)"><path class="b-outline" fill="#A5ABB6" stroke="none" d="M 25 0.5 L 54.1857635737893 0.5 L 54.1857635737893 -0.5 L 25 -0.5 Z M 88.1857635737893 0.5 L 117.3715271475786 0.5 L 117.3715271475786 3.5 L 124.3715271475786 0 L 117.3715271475786 -3.5 L 117.3715271475786 -0.5 L 88.1857635737893 -0.5 Z"/><text text-anchor="middle" pointer-events="none" font-size="8px" fill="#000000" x="71.1857635737893" y="3" transform="rotate(180 71.1857635737893 0)" font-family="Helvetica Neue, Helvetica, Arial, sans-serif">refersTo</text></g><g class="relationship" transform="translate(-253.71123851361602 36.62920190456275) rotate(470.481402025189)"><path class="b-outline" fill="#A5ABB6" stroke="none" d="M 25 0.5 L 73.97121094576846 0.5 L 73.97121094576846 -0.5 L 25 -0.5 Z M 118.97121094576846 0.5 L 167.94242189153692 0.5 L 167.94242189153692 3.5 L 174.94242189153692 0 L 167.94242189153692 -3.5 L 167.94242189153692 -0.5 L 118.97121094576846 -0.5 Z"/><text text-anchor="middle" pointer-events="none" font-size="8px" fill="#000000" x="96.47121094576846" y="3" transform="rotate(180 96.47121094576846 0)" font-family="Helvetica Neue, Helvetica, Arial, sans-serif">PublishedIn</text></g><g class="relationship" transform="translate(-253.71123851361602 36.62920190456275) rotate(342.6871224050053)"><path class="b-outline" fill="#A5ABB6" stroke="none" d="M 25 0.5 L 103.64434292881421 0.5 L 103.64434292881421 -0.5 L 25 -0.5 Z M 148.6443429288142 0.5 L 227.28868585762842 0.5 L 227.28868585762842 3.5 L 234.28868585762842 0 L 227.28868585762842 -3.5 L 227.28868585762842 -0.5 L 148.6443429288142 -0.5 Z"/><text text-anchor="middle" pointer-events="none" font-size="8px" fill="#000000" x="126.14434292881421" y="3" font-family="Helvetica Neue, Helvetica, Arial, sans-serif">PublishedIn</text></g><g class="relationship" transform="translate(-253.71123851361602 36.62920190456275) rotate(358.4061323827792)"><path class="b-outline" fill="#A5ABB6" stroke="none" d="M 25 0.5 L 59.54767300997504 0.5 L 59.54767300997504 -0.5 L 25 -0.5 Z M 114.54767300997504 0.5 L 149.09534601995009 0.5 L 149.09534601995009 3.5 L 156.09534601995009 0 L 149.09534601995009 -3.5 L 149.09534601995009 -0.5 L 114.54767300997504 -0.5 Z"/><text text-anchor="middle" pointer-events="none" font-size="8px" fill="#000000" x="87.04767300997504" y="3" font-family="Helvetica Neue, Helvetica, Arial, sans-serif">hasMeshTopic</text></g><g class="relationship" transform="translate(-323.6717563157758 223.9324267051706) rotate(420.52498130807663)"><path class="b-outline" fill="#A5ABB6" stroke="none" d="M 25 0.5 L 77.67171887171025 0.5 L 77.67171887171025 -0.5 L 25 -0.5 Z M 111.67171887171025 0.5 L 164.3434377434205 0.5 L 164.3434377434205 3.5 L 171.3434377434205 0 L 164.3434377434205 -3.5 L 164.3434377434205 -0.5 L 111.67171887171025 -0.5 Z"/><text text-anchor="middle" pointer-events="none" font-size="8px" fill="#000000" x="94.67171887171025" y="3" font-family="Helvetica Neue, Helvetica, Arial, sans-serif">refersTo</text></g><g class="relationship" transform="translate(-174.47912538063966 -22.413113755807952) rotate(197.9972533440279)"><path class="b-outline" fill="#A5ABB6" stroke="none" d="M 25 0.5 L 78.27970216451024 0.5 L 78.27970216451024 -0.5 L 25 -0.5 Z M 123.27970216451024 0.5 L 176.55940432902048 0.5 L 176.55940432902048 3.5 L 183.55940432902048 0 L 176.55940432902048 -3.5 L 176.55940432902048 -0.5 L 123.27970216451024 -0.5 Z"/><text text-anchor="middle" pointer-events="none" font-size="8px" fill="#000000" x="100.77970216451024" y="3" transform="rotate(180 100.77970216451024 0)" font-family="Helvetica Neue, Helvetica, Arial, sans-serif">PublishedIn</text></g><g class="relationship" transform="translate(-174.47912538063966 -22.413113755807952) rotate(353.8555097472306)"><path class="b-outline" fill="#A5ABB6" stroke="none" d="M 25 0.5 L 58.64086252225691 0.5 L 58.64086252225691 -0.5 L 25 -0.5 Z M 103.64086252225691 0.5 L 137.28172504451382 0.5 L 137.28172504451382 3.5 L 144.28172504451382 0 L 137.28172504451382 -3.5 L 137.28172504451382 -0.5 L 103.64086252225691 -0.5 Z"/><text text-anchor="middle" pointer-events="none" font-size="8px" fill="#000000" x="81.14086252225691" y="3" font-family="Helvetica Neue, Helvetica, Arial, sans-serif">PublishedIn</text></g><g class="relationship" transform="translate(-174.47912538063966 -22.413113755807952) rotate(387.9476798404106)"><path class="b-outline" fill="#A5ABB6" stroke="none" d="M 25 0.5 L 26.615995408898108 0.5 L 26.615995408898108 -0.5 L 25 -0.5 Z M 81.6159954088981 0.5 L 83.23199081779622 0.5 L 83.23199081779622 3.5 L 90.23199081779622 0 L 83.23199081779622 -3.5 L 83.23199081779622 -0.5 L 81.6159954088981 -0.5 Z"/><text text-anchor="middle" pointer-events="none" font-size="8px" fill="#000000" x="54.11599540889811" y="3" font-family="Helvetica Neue, Helvetica, Arial, sans-serif">hasMeshTopic</text></g><g class="relationship" transform="translate(-180.55719494771762 102.4170576341726) rotate(320.65770725213156)"><path class="b-outline" fill="#A5ABB6" stroke="none" d="M 25 0.5 L 86.74469924272226 0.5 L 86.74469924272226 -0.5 L 25 -0.5 Z M 131.74469924272228 0.5 L 193.48939848544453 0.5 L 193.48939848544453 3.5 L 200.48939848544453 0 L 193.48939848544453 -3.5 L 193.48939848544453 -0.5 L 131.74469924272228 -0.5 Z"/><text text-anchor="middle" pointer-events="none" font-size="8px" fill="#000000" x="109.24469924272226" y="3" font-family="Helvetica Neue, Helvetica, Arial, sans-serif">PublishedIn</text></g><g class="relationship" transform="translate(-180.55719494771762 102.4170576341726) rotate(469.35762173671816)"><path class="b-outline" fill="#A5ABB6" stroke="none" d="M 25 0.5 L 70.4493284771258 0.5 L 70.4493284771258 -0.5 L 25 -0.5 Z M 115.4493284771258 0.5 L 160.8986569542516 0.5 L 160.8986569542516 3.5 L 167.8986569542516 0 L 160.8986569542516 -3.5 L 160.8986569542516 -0.5 L 115.4493284771258 -0.5 Z"/><text text-anchor="middle" pointer-events="none" font-size="8px" fill="#000000" x="92.9493284771258" y="3" transform="rotate(180 92.9493284771258 0)" font-family="Helvetica Neue, Helvetica, Arial, sans-serif">PublishedIn</text></g><g class="relationship" transform="translate(-180.55719494771762 102.4170576341726) rotate(326.71232001255663)"><path class="b-outline" fill="#A5ABB6" stroke="none" d="M 25 0.5 L 33.52204756254183 0.5 L 33.52204756254183 -0.5 L 25 -0.5 Z M 88.52204756254183 0.5 L 97.04409512508366 0.5 L 97.04409512508366 3.5 L 104.04409512508366 0 L 97.04409512508366 -3.5 L 97.04409512508366 -0.5 L 88.52204756254183 -0.5 Z"/><text text-anchor="middle" pointer-events="none" font-size="8px" fill="#000000" x="61.02204756254183" y="3" font-family="Helvetica Neue, Helvetica, Arial, sans-serif">hasMeshTopic</text></g><g class="relationship" transform="translate(-244.4960388020617 284.4107830791006) rotate(490.01351699451146)"><path class="b-outline" fill="#A5ABB6" stroke="none" d="M 25 0.5 L 57.17775124213621 0.5 L 57.17775124213621 -0.5 L 25 -0.5 Z M 91.17775124213621 0.5 L 123.35550248427242 0.5 L 123.35550248427242 3.5 L 130.35550248427242 0 L 123.35550248427242 -3.5 L 123.35550248427242 -0.5 L 91.17775124213621 -0.5 Z"/><text text-anchor="middle" pointer-events="none" font-size="8px" fill="#000000" x="74.17775124213621" y="3" transform="rotate(180 74.17775124213621 0)" font-family="Helvetica Neue, Helvetica, Arial, sans-serif">refersTo</text></g><g class="relationship" transform="translate(-109.63857123990036 172.05041691903608) rotate(500.19965890164167)"><path class="b-outline" fill="#A5ABB6" stroke="none" d="M 25 0.5 L 61.765865290702806 0.5 L 61.765865290702806 -0.5 L 25 -0.5 Z M 106.7658652907028 0.5 L 143.5317305814056 0.5 L 143.5317305814056 3.5 L 150.5317305814056 0 L 143.5317305814056 -3.5 L 143.5317305814056 -0.5 L 106.7658652907028 -0.5 Z"/><text text-anchor="middle" pointer-events="none" font-size="8px" fill="#000000" x="84.2658652907028" y="3" transform="rotate(180 84.2658652907028 0)" font-family="Helvetica Neue, Helvetica, Arial, sans-serif">PublishedIn</text></g><g class="relationship" transform="translate(-109.63857123990036 172.05041691903608) rotate(295.9531944156235)"><path class="b-outline" fill="#A5ABB6" stroke="none" d="M 25 0.5 L 92.21295377791887 0.5 L 92.21295377791887 -0.5 L 25 -0.5 Z M 137.21295377791887 0.5 L 204.42590755583774 0.5 L 204.42590755583774 3.5 L 211.42590755583774 0 L 204.42590755583774 -3.5 L 204.42590755583774 -0.5 L 137.21295377791887 -0.5 Z"/><text text-anchor="middle" pointer-events="none" font-size="8px" fill="#000000" x="114.71295377791887" y="3" font-family="Helvetica Neue, Helvetica, Arial, sans-serif">PublishedIn</text></g><g class="relationship" transform="translate(-109.63857123990036 172.05041691903608) rotate(284.7397085113188)"><path class="b-outline" fill="#A5ABB6" stroke="none" d="M 25 0.5 L 41.618928080635456 0.5 L 41.618928080635456 -0.5 L 25 -0.5 Z M 96.61892808063546 0.5 L 113.23785616127091 0.5 L 113.23785616127091 3.5 L 120.23785616127091 0 L 113.23785616127091 -3.5 L 113.23785616127091 -0.5 L 96.61892808063546 -0.5 Z"/><text text-anchor="middle" pointer-events="none" font-size="8px" fill="#000000" x="69.11892808063546" y="3" font-family="Helvetica Neue, Helvetica, Arial, sans-serif">hasMeshTopic</text></g><g class="relationship" transform="translate(71.94621171733131 164.7625421544211) rotate(249.16783949467697)"><path class="b-outline" fill="#A5ABB6" stroke="none" d="M 25 0.5 L 83.82728595980804 0.5 L 83.82728595980804 -0.5 L 25 -0.5 Z M 128.82728595980802 0.5 L 187.65457191961607 0.5 L 187.65457191961607 3.5 L 194.65457191961607 0 L 187.65457191961607 -3.5 L 187.65457191961607 -0.5 L 128.82728595980802 -0.5 Z"/><text text-anchor="middle" pointer-events="none" font-size="8px" fill="#000000" x="106.32728595980804" y="3" transform="rotate(180 106.32728595980804 0)" font-family="Helvetica Neue, Helvetica, Arial, sans-serif">PublishedIn</text></g><g class="relationship" transform="translate(71.94621171733131 164.7625421544211) rotate(370.49792488917666)"><path class="b-outline" fill="#A5ABB6" stroke="none" d="M 25 0.5 L 75.88113637918167 0.5 L 75.88113637918167 -0.5 L 25 -0.5 Z M 120.88113637918167 0.5 L 171.76227275836334 0.5 L 171.76227275836334 3.5 L 178.76227275836334 0 L 171.76227275836334 -3.5 L 171.76227275836334 -0.5 L 120.88113637918167 -0.5 Z"/><text text-anchor="middle" pointer-events="none" font-size="8px" fill="#000000" x="98.38113637918167" y="3" font-family="Helvetica Neue, Helvetica, Arial, sans-serif">PublishedIn</text></g><g class="relationship" transform="translate(71.94621171733131 164.7625421544211) rotate(222.63740055413206)"><path class="b-outline" fill="#A5ABB6" stroke="none" d="M 25 0.5 L 67.30161729270624 0.5 L 67.30161729270624 -0.5 L 25 -0.5 Z M 122.30161729270624 0.5 L 164.60323458541248 0.5 L 164.60323458541248 3.5 L 171.60323458541248 0 L 164.60323458541248 -3.5 L 164.60323458541248 -0.5 L 122.30161729270624 -0.5 Z"/><text text-anchor="middle" pointer-events="none" font-size="8px" fill="#000000" x="94.80161729270624" y="3" transform="rotate(180 94.80161729270624 0)" font-family="Helvetica Neue, Helvetica, Arial, sans-serif">hasMeshTopic</text></g><g class="relationship" transform="translate(43.37772929096724 -150.84307241539958) rotate(317.8994589554673)"><path class="b-outline" fill="#A5ABB6" stroke="none" d="M 25 0.5 L 76.24873827196846 0.5 L 76.24873827196846 -0.5 L 25 -0.5 Z M 121.24873827196846 0.5 L 172.49747654393693 0.5 L 172.49747654393693 3.5 L 179.49747654393693 0 L 172.49747654393693 -3.5 L 172.49747654393693 -0.5 L 121.24873827196846 -0.5 Z"/><text text-anchor="middle" pointer-events="none" font-size="8px" fill="#000000" x="98.74873827196846" y="3" font-family="Helvetica Neue, Helvetica, Arial, sans-serif">PublishedIn</text></g><g class="relationship" transform="translate(43.37772929096724 -150.84307241539958) rotate(474.187916140439)"><path class="b-outline" fill="#A5ABB6" stroke="none" d="M 25 0.5 L 34.463661198462475 0.5 L 34.463661198462475 -0.5 L 25 -0.5 Z M 79.46366119846247 0.5 L 88.92732239692495 0.5 L 88.92732239692495 3.5 L 95.92732239692495 0 L 88.92732239692495 -3.5 L 88.92732239692495 -0.5 L 79.46366119846247 -0.5 Z"/><text text-anchor="middle" pointer-events="none" font-size="8px" fill="#000000" x="56.963661198462475" y="3" transform="rotate(180 56.963661198462475 0)" font-family="Helvetica Neue, Helvetica, Arial, sans-serif">PublishedIn</text></g><g class="relationship" transform="translate(43.37772929096724 -150.84307241539958) rotate(482.4641680544358)"><path class="b-outline" fill="#A5ABB6" stroke="none" d="M 25 0.5 L 77.11263935909703 0.5 L 77.11263935909703 -0.5 L 25 -0.5 Z M 132.11263935909705 0.5 L 184.22527871819406 0.5 L 184.22527871819406 3.5 L 191.22527871819406 0 L 184.22527871819406 -3.5 L 184.22527871819406 -0.5 L 132.11263935909705 -0.5 Z"/><text text-anchor="middle" pointer-events="none" font-size="8px" fill="#000000" x="104.61263935909703" y="3" transform="rotate(180 104.61263935909703 0)" font-family="Helvetica Neue, Helvetica, Arial, sans-serif">hasMeshTopic</text></g></g><g class="layer nodes"><g class="node" aria-label="graph-node93828" style="touch-action: none;" transform="translate(-17.469099891887726,206.14835761694758)"><circle class="b-outline" cx="0" cy="0" r="25" fill="#F79767" stroke="#f36924" stroke-width="2px"/><text class="caption" text-anchor="middle" pointer-events="none" x="0" y="-5" font-size="10px" fill="#FFFFFF" font-family="Helvetica Neue, Helvetica, Arial, sans-serif"> Sporadic</text><text class="caption" text-anchor="middle" pointer-events="none" x="0" y="5" font-size="10px" fill="#FFFFFF" font-family="Helvetica Neue, Helvetica, Arial, sans-serif"> Cases of</text><text class="caption" text-anchor="middle" pointer-events="none" x="0" y="15" font-size="10px" fill="#FFFFFF" font-family="Helvetica Neue, Helvetica, Arial, sans-serif"> H</text></g><g class="node" aria-label="graph-node3560" style="touch-action: none;" transform="translate(-72.685958685908,31.592098234251345)"><circle class="b-outline" cx="0" cy="0" r="25" fill="#569480" stroke="#447666" stroke-width="2px"/><text class="caption" text-anchor="middle" pointer-events="none" x="0" y="5" font-size="10px" fill="#FFFFFF" font-family="Helvetica Neue, Helvetica, Arial, sans-serif"> Escheric…</text></g><g class="node" aria-label="graph-node31" style="touch-action: none;" transform="translate(-6.169901810840279,-40.53237685830945)"><circle class="b-outline" cx="0" cy="0" r="25" fill="#C990C0" stroke="#b261a5" stroke-width="2px"/><text class="caption" text-anchor="middle" pointer-events="none" x="0" y="5" font-size="10px" fill="#FFFFFF" font-family="Helvetica Neue, Helvetica, Arial, sans-serif"> PubMed</text></g><g class="node" aria-label="graph-node12127" style="touch-action: none;" transform="translate(-8.279297131947514,107.0276785437542)"><circle class="b-outline" cx="0" cy="0" r="25" fill="#57C7E3" stroke="#23b3d7" stroke-width="2px"/><text class="caption" text-anchor="middle" pointer-events="none" x="0" y="0" font-size="10px" fill="#2A2C34" font-family="Helvetica Neue, Helvetica, Arial, sans-serif"> National</text><text class="caption" text-anchor="middle" pointer-events="none" x="0" y="10" font-size="10px" fill="#2A2C34" font-family="Helvetica Neue, Helvetica, Arial, sans-serif"> Institu…</text></g><g class="node" aria-label="graph-node2791" style="touch-action: none;" transform="translate(-57.928477314535115,390.36505113027283)"><circle class="b-outline" cx="0" cy="0" r="25" fill="#C990C0" stroke="#b261a5" stroke-width="2px"/><text class="caption" text-anchor="middle" pointer-events="none" x="0" y="0" font-size="10px" fill="#FFFFFF" font-family="Helvetica Neue, Helvetica, Arial, sans-serif"> The</text><text class="caption" text-anchor="middle" pointer-events="none" x="0" y="10" font-size="10px" fill="#FFFFFF" font-family="Helvetica Neue, Helvetica, Arial, sans-serif"> Lancet</text></g><g class="node" aria-label="graph-node15" style="touch-action: none;" transform="translate(-227.06213936771195,394.8631947314473)"><circle class="b-outline" cx="0" cy="0" r="25" fill="#57C7E3" stroke="#23b3d7" stroke-width="2px"/><text class="caption" text-anchor="middle" pointer-events="none" x="0" y="0" font-size="10px" fill="#2A2C34" font-family="Helvetica Neue, Helvetica, Arial, sans-serif"> Elsevier</text><text class="caption" text-anchor="middle" pointer-events="none" x="0" y="10" font-size="10px" fill="#2A2C34" font-family="Helvetica Neue, Helvetica, Arial, sans-serif"> BV</text></g><g class="node" aria-label="graph-node87181" style="touch-action: none;" transform="translate(157.82609883174172,116.6174342153467)"><circle class="b-outline" cx="0" cy="0" r="25" fill="#F79767" stroke="#f36924" stroke-width="2px"/><text class="caption" text-anchor="middle" pointer-events="none" x="0" y="0" font-size="10px" fill="#FFFFFF" font-family="Helvetica Neue, Helvetica, Arial, sans-serif"> Epidemic</text><text class="caption" text-anchor="middle" pointer-events="none" x="0" y="10" font-size="10px" fill="#FFFFFF" font-family="Helvetica Neue, Helvetica, Arial, sans-serif">of…</text></g><g class="node" aria-label="graph-node1386" style="touch-action: none;" transform="translate(272.29781110704056,201.88801079306745)"><circle class="b-outline" cx="0" cy="0" r="25" fill="#C990C0" stroke="#b261a5" stroke-width="2px"/><text class="caption" text-anchor="middle" pointer-events="none" x="0" y="-5" font-size="10px" fill="#FFFFFF" font-family="Helvetica Neue, Helvetica, Arial, sans-serif"> The New</text><text class="caption" text-anchor="middle" pointer-events="none" x="0" y="5" font-size="10px" fill="#FFFFFF" font-family="Helvetica Neue, Helvetica, Arial, sans-serif"> England</text><text class="caption" text-anchor="middle" pointer-events="none" x="0" y="15" font-size="10px" fill="#FFFFFF" font-family="Helvetica Neue, Helvetica, Arial, sans-serif"> Jou</text></g><g class="node" aria-label="graph-node1387" style="touch-action: none;" transform="translate(417.763181900954,246.39385935226613)"><circle class="b-outline" cx="0" cy="0" r="25" fill="#57C7E3" stroke="#23b3d7" stroke-width="2px"/><text class="caption" text-anchor="middle" pointer-events="none" x="0" y="5" font-size="10px" fill="#2A2C34" font-family="Helvetica Neue, Helvetica, Arial, sans-serif"> Massac…</text></g><g class="node" aria-label="graph-node85965" style="touch-action: none;" transform="translate(80.38667996108539,55.86749093187984)"><circle class="b-outline" cx="0" cy="0" r="25" fill="#F79767" stroke="#f36924" stroke-width="2px"/><text class="caption" text-anchor="middle" pointer-events="none" x="0" y="-5" font-size="10px" fill="#FFFFFF" font-family="Helvetica Neue, Helvetica, Arial, sans-serif"> A</text><text class="caption" text-anchor="middle" pointer-events="none" x="0" y="5" font-size="10px" fill="#FFFFFF" font-family="Helvetica Neue, Helvetica, Arial, sans-serif"> Toll-like</text><text class="caption" text-anchor="middle" pointer-events="none" x="0" y="15" font-size="10px" fill="#FFFFFF" font-family="Helvetica Neue, Helvetica, Arial, sans-serif"> Rec…</text></g><g class="node" aria-label="graph-node115" style="touch-action: none;" transform="translate(283.9838705214456,-21.952449059778388)"><circle class="b-outline" cx="0" cy="0" r="25" fill="#C990C0" stroke="#b261a5" stroke-width="2px"/><text class="caption" text-anchor="middle" pointer-events="none" x="0" y="5" font-size="10px" fill="#FFFFFF" font-family="Helvetica Neue, Helvetica, Arial, sans-serif"> Science</text></g><g class="node" aria-label="graph-node117" style="touch-action: none;" transform="translate(432.0527326188911,-68.39081152226339)"><circle class="b-outline" cx="0" cy="0" r="25" fill="#57C7E3" stroke="#23b3d7" stroke-width="2px"/><text class="caption" text-anchor="middle" pointer-events="none" x="0" y="0" font-size="10px" fill="#2A2C34" font-family="Helvetica Neue, Helvetica, Arial, sans-serif"> American</text><text class="caption" text-anchor="middle" pointer-events="none" x="0" y="10" font-size="10px" fill="#2A2C34" font-family="Helvetica Neue, Helvetica, Arial, sans-serif"> Associ…</text></g><g class="node" aria-label="graph-node83091" style="touch-action: none;" transform="translate(95.33526192576561,-42.45364354535319)"><circle class="b-outline" cx="0" cy="0" r="25" fill="#F79767" stroke="#f36924" stroke-width="2px"/><text class="caption" text-anchor="middle" pointer-events="none" x="0" y="5" font-size="10px" fill="#FFFFFF" font-family="Helvetica Neue, Helvetica, Arial, sans-serif"> Intracell…</text></g><g class="node" aria-label="graph-node79072" style="touch-action: none;" transform="translate(172.03566860096436,19.50504672046152)"><circle class="b-outline" cx="0" cy="0" r="25" fill="#F79767" stroke="#f36924" stroke-width="2px"/><text class="caption" text-anchor="middle" pointer-events="none" x="0" y="-5" font-size="10px" fill="#FFFFFF" font-family="Helvetica Neue, Helvetica, Arial, sans-serif"> The Risk</text><text class="caption" text-anchor="middle" pointer-events="none" x="0" y="5" font-size="10px" fill="#FFFFFF" font-family="Helvetica Neue, Helvetica, Arial, sans-serif"> of the</text><text class="caption" text-anchor="middle" pointer-events="none" x="0" y="15" font-size="10px" fill="#FFFFFF" font-family="Helvetica Neue, Helvetica, Arial, sans-serif"> Hem</text></g><g class="node" aria-label="graph-node78377" style="touch-action: none;" transform="translate(139.6635228718064,-130.64168519144658)"><circle class="b-outline" cx="0" cy="0" r="25" fill="#F79767" stroke="#f36924" stroke-width="2px"/><text class="caption" text-anchor="middle" pointer-events="none" x="0" y="-5" font-size="10px" fill="#FFFFFF" font-family="Helvetica Neue, Helvetica, Arial, sans-serif"> Recent</text><text class="caption" text-anchor="middle" pointer-events="none" x="0" y="5" font-size="10px" fill="#FFFFFF" font-family="Helvetica Neue, Helvetica, Arial, sans-serif"> Advances</text><text class="caption" text-anchor="middle" pointer-events="none" x="0" y="15" font-size="10px" fill="#FFFFFF" font-family="Helvetica Neue, Helvetica, Arial, sans-serif"> in </text></g><g class="node" aria-label="graph-node1207" style="touch-action: none;" transform="translate(195.10862177860602,-287.945057002577)"><circle class="b-outline" cx="0" cy="0" r="25" fill="#C990C0" stroke="#b261a5" stroke-width="2px"/><text class="caption" text-anchor="middle" pointer-events="none" x="0" y="0" font-size="10px" fill="#FFFFFF" font-family="Helvetica Neue, Helvetica, Arial, sans-serif"> Clinical</text><text class="caption" text-anchor="middle" pointer-events="none" x="0" y="10" font-size="10px" fill="#FFFFFF" font-family="Helvetica Neue, Helvetica, Arial, sans-serif"> Micro…</text></g><g class="node" aria-label="graph-node557" style="touch-action: none;" transform="translate(184.56510928140457,-444.21616682308303)"><circle class="b-outline" cx="0" cy="0" r="25" fill="#57C7E3" stroke="#23b3d7" stroke-width="2px"/><text class="caption" text-anchor="middle" pointer-events="none" x="0" y="0" font-size="10px" fill="#2A2C34" font-family="Helvetica Neue, Helvetica, Arial, sans-serif"> American</text><text class="caption" text-anchor="middle" pointer-events="none" x="0" y="10" font-size="10px" fill="#2A2C34" font-family="Helvetica Neue, Helvetica, Arial, sans-serif">fo…</text></g><g class="node" aria-label="graph-node70390" style="touch-action: none;" transform="translate(-41.73318928499051,-201.9486879962369)"><circle class="b-outline" cx="0" cy="0" r="25" fill="#F79767" stroke="#f36924" stroke-width="2px"/><text class="caption" text-anchor="middle" pointer-events="none" x="0" y="0" font-size="10px" fill="#FFFFFF" font-family="Helvetica Neue, Helvetica, Arial, sans-serif"> Detection</text><text class="caption" text-anchor="middle" pointer-events="none" x="0" y="10" font-size="10px" fill="#FFFFFF" font-family="Helvetica Neue, Helvetica, Arial, sans-serif"> C…</text></g><g class="node" aria-label="graph-node554" style="touch-action: none;" transform="translate(40.4212142781074,-369.253058843808)"><circle class="b-outline" cx="0" cy="0" r="25" fill="#C990C0" stroke="#b261a5" stroke-width="2px"/><text class="caption" text-anchor="middle" pointer-events="none" x="0" y="-5" font-size="10px" fill="#FFFFFF" font-family="Helvetica Neue, Helvetica, Arial, sans-serif"> Journal</text><text class="caption" text-anchor="middle" pointer-events="none" x="0" y="5" font-size="10px" fill="#FFFFFF" font-family="Helvetica Neue, Helvetica, Arial, sans-serif"> of</text><text class="caption" text-anchor="middle" pointer-events="none" x="0" y="15" font-size="10px" fill="#FFFFFF" font-family="Helvetica Neue, Helvetica, Arial, sans-serif"> Clin…</text></g><g class="node" aria-label="graph-node68678" style="touch-action: none;" transform="translate(-127.27736455634114,-152.35453729168896)"><circle class="b-outline" cx="0" cy="0" r="25" fill="#F79767" stroke="#f36924" stroke-width="2px"/><text class="caption" text-anchor="middle" pointer-events="none" x="0" y="5" font-size="10px" fill="#FFFFFF" font-family="Helvetica Neue, Helvetica, Arial, sans-serif"> Epidem…</text></g><g class="node" aria-label="graph-node5511" style="touch-action: none;" transform="translate(-198.48877241566186,-324.006922894401)"><circle class="b-outline" cx="0" cy="0" r="25" fill="#C990C0" stroke="#b261a5" stroke-width="2px"/><text class="caption" text-anchor="middle" pointer-events="none" x="0" y="5" font-size="10px" fill="#FFFFFF" font-family="Helvetica Neue, Helvetica, Arial, sans-serif">In…</text></g><g class="node" aria-label="graph-node5512" style="touch-action: none;" transform="translate(-227.7277183223377,-470.63116741963194)"><circle class="b-outline" cx="0" cy="0" r="25" fill="#57C7E3" stroke="#23b3d7" stroke-width="2px"/><text class="caption" text-anchor="middle" pointer-events="none" x="0" y="-5" font-size="10px" fill="#2A2C34" font-family="Helvetica Neue, Helvetica, Arial, sans-serif"> Centers</text><text class="caption" text-anchor="middle" pointer-events="none" x="0" y="5" font-size="10px" fill="#2A2C34" font-family="Helvetica Neue, Helvetica, Arial, sans-serif"> for</text><text class="caption" text-anchor="middle" pointer-events="none" x="0" y="15" font-size="10px" fill="#2A2C34" font-family="Helvetica Neue, Helvetica, Arial, sans-serif"> Dis…</text></g><g class="node" aria-label="graph-node66914" style="touch-action: none;" transform="translate(-217.3989198200959,-110.77958521322674)"><circle class="b-outline" cx="0" cy="0" r="25" fill="#F79767" stroke="#f36924" stroke-width="2px"/><text class="caption" text-anchor="middle" pointer-events="none" x="0" y="0" font-size="10px" fill="#FFFFFF" font-family="Helvetica Neue, Helvetica, Arial, sans-serif"> Extended</text><text class="caption" text-anchor="middle" pointer-events="none" x="0" y="10" font-size="10px" fill="#FFFFFF" font-family="Helvetica Neue, Helvetica, Arial, sans-serif"> Virule…</text></g><g class="node" aria-label="graph-node35958" style="touch-action: none;" transform="translate(-372.833995214142,-86.85200533077362)"><circle class="b-outline" cx="0" cy="0" r="25" fill="#C990C0" stroke="#b261a5" stroke-width="2px"/><text class="caption" text-anchor="middle" pointer-events="none" x="0" y="-5" font-size="10px" fill="#FFFFFF" font-family="Helvetica Neue, Helvetica, Arial, sans-serif"> The</text><text class="caption" text-anchor="middle" pointer-events="none" x="0" y="5" font-size="10px" fill="#FFFFFF" font-family="Helvetica Neue, Helvetica, Arial, sans-serif"> Journal</text><text class="caption" text-anchor="middle" pointer-events="none" x="0" y="15" font-size="10px" fill="#FFFFFF" font-family="Helvetica Neue, Helvetica, Arial, sans-serif"> I…</text></g><g class="node" aria-label="graph-node26" style="touch-action: none;" transform="translate(-501.97558206806104,-161.91400415342358)"><circle class="b-outline" cx="0" cy="0" r="25" fill="#57C7E3" stroke="#23b3d7" stroke-width="2px"/><text class="caption" text-anchor="middle" pointer-events="none" x="0" y="-5" font-size="10px" fill="#2A2C34" font-family="Helvetica Neue, Helvetica, Arial, sans-serif"> Oxford</text><text class="caption" text-anchor="middle" pointer-events="none" x="0" y="5" font-size="10px" fill="#2A2C34" font-family="Helvetica Neue, Helvetica, Arial, sans-serif"> University</text><text class="caption" text-anchor="middle" pointer-events="none" x="0" y="15" font-size="10px" fill="#2A2C34" font-family="Helvetica Neue, Helvetica, Arial, sans-serif"> P</text></g><g class="node" aria-label="graph-node50690" style="touch-action: none;" transform="translate(-253.71123851361602,36.62920190456275)"><circle class="b-outline" cx="0" cy="0" r="25" fill="#F79767" stroke="#f36924" stroke-width="2px"/><text class="caption" text-anchor="middle" pointer-events="none" x="0" y="0" font-size="10px" fill="#FFFFFF" font-family="Helvetica Neue, Helvetica, Arial, sans-serif"> High</text><text class="caption" text-anchor="middle" pointer-events="none" x="0" y="10" font-size="10px" fill="#FFFFFF" font-family="Helvetica Neue, Helvetica, Arial, sans-serif"> preval…</text></g><g class="node" aria-label="graph-node33999" style="touch-action: none;" transform="translate(-323.6717563157758,223.9324267051706)"><circle class="b-outline" cx="0" cy="0" r="25" fill="#C990C0" stroke="#b261a5" stroke-width="2px"/><text class="caption" text-anchor="middle" pointer-events="none" x="0" y="5" font-size="10px" fill="#FFFFFF" font-family="Helvetica Neue, Helvetica, Arial, sans-serif"> Gastroe…</text></g><g class="node" aria-label="graph-node49415" style="touch-action: none;" transform="translate(-174.47912538063966,-22.413113755807952)"><circle class="b-outline" cx="0" cy="0" r="25" fill="#F79767" stroke="#f36924" stroke-width="2px"/><text class="caption" text-anchor="middle" pointer-events="none" x="0" y="0" font-size="10px" fill="#FFFFFF" font-family="Helvetica Neue, Helvetica, Arial, sans-serif"> The</text><text class="caption" text-anchor="middle" pointer-events="none" x="0" y="10" font-size="10px" fill="#FFFFFF" font-family="Helvetica Neue, Helvetica, Arial, sans-serif"> Associ…</text></g><g class="node" aria-label="graph-node37034" style="touch-action: none;" transform="translate(-180.55719494771762,102.4170576341726)"><circle class="b-outline" cx="0" cy="0" r="25" fill="#F79767" stroke="#f36924" stroke-width="2px"/><text class="caption" text-anchor="middle" pointer-events="none" x="0" y="0" font-size="10px" fill="#FFFFFF" font-family="Helvetica Neue, Helvetica, Arial, sans-serif"> Lipocalin</text><text class="caption" text-anchor="middle" pointer-events="none" x="0" y="10" font-size="10px" fill="#FFFFFF" font-family="Helvetica Neue, Helvetica, Arial, sans-serif"> me…</text></g><g class="node" aria-label="graph-node149" style="touch-action: none;" transform="translate(-244.4960388020617,284.4107830791006)"><circle class="b-outline" cx="0" cy="0" r="25" fill="#C990C0" stroke="#b261a5" stroke-width="2px"/><text class="caption" text-anchor="middle" pointer-events="none" x="0" y="5" font-size="10px" fill="#FFFFFF" font-family="Helvetica Neue, Helvetica, Arial, sans-serif"> Nature</text></g><g class="node" aria-label="graph-node151" style="touch-action: none;" transform="translate(-344.38470430242404,403.396440436185)"><circle class="b-outline" cx="0" cy="0" r="25" fill="#57C7E3" stroke="#23b3d7" stroke-width="2px"/><text class="caption" text-anchor="middle" pointer-events="none" x="0" y="0" font-size="10px" fill="#2A2C34" font-family="Helvetica Neue, Helvetica, Arial, sans-serif"> Nature</text><text class="caption" text-anchor="middle" pointer-events="none" x="0" y="10" font-size="10px" fill="#2A2C34" font-family="Helvetica Neue, Helvetica, Arial, sans-serif"> Portfo…</text></g><g class="node" aria-label="graph-node29519" style="touch-action: none;" transform="translate(-109.63857123990036,172.05041691903608)"><circle class="b-outline" cx="0" cy="0" r="25" fill="#F79767" stroke="#f36924" stroke-width="2px"/><text class="caption" text-anchor="middle" pointer-events="none" x="0" y="5" font-size="10px" fill="#FFFFFF" font-family="Helvetica Neue, Helvetica, Arial, sans-serif"> Bifidob…</text></g><g class="node" aria-label="graph-node13278" style="touch-action: none;" transform="translate(71.94621171733131,164.7625421544211)"><circle class="b-outline" cx="0" cy="0" r="25" fill="#F79767" stroke="#f36924" stroke-width="2px"/><text class="caption" text-anchor="middle" pointer-events="none" x="0" y="5" font-size="10px" fill="#FFFFFF" font-family="Helvetica Neue, Helvetica, Arial, sans-serif"> Hemorr…</text></g><g class="node" aria-label="graph-node2910" style="touch-action: none;" transform="translate(43.37772929096724,-150.84307241539958)"><circle class="b-outline" cx="0" cy="0" r="25" fill="#F79767" stroke="#f36924" stroke-width="2px"/><text class="caption" text-anchor="middle" pointer-events="none" x="0" y="5" font-size="10px" fill="#FFFFFF" font-family="Helvetica Neue, Helvetica, Arial, sans-serif"> Diarrhe…</text></g></g></svg>