<svg xmlns="http://www.w3.org/2000/svg" width="1252.44775390625" height="1150.10400390625" viewBox="-640.1619262695312 -532.896728515625 1252.44775390625 1150.10400390625"><title>Neo4j Graph Visualization</title><desc>Created using Neo4j (http://www.neo4j.com/)</desc><g class="layer relationships"><g class="relationship" transform="translate(30.76301384375493 310.2018583270629) rotate(272.4543611970314)"><path class="b-outline" fill="#A5ABB6" stroke="none" d="M 25 0.5 L 33.39589589488381 0.5 L 33.39589589488381 -0.5 L 25 -0.5 Z M 103.39589589488381 0.5 L 111.79179178976761 0.5 L 111.79179178976761 3.5 L 118.79179178976761 0 L 111.79179178976761 -3.5 L 111.79179178976761 -0.5 L 103.39589589488381 -0.5 Z"/><text text-anchor="middle" pointer-events="none" font-size="8px" fill="#000000" x="68.39589589488381" y="3" font-family="Helvetica Neue, Helvetica, Arial, sans-serif">hasPublicationYear</text></g><g class="relationship" transform="translate(77.26848287292326 446.9745775257454) rotate(251.22093621233722)"><path class="b-outline" fill="#A5ABB6" stroke="none" d="M 25 0.5 L 40.73146019329907 0.5 L 40.73146019329907 -0.5 L 25 -0.5 Z M 96.73146019329907 0.5 L 112.46292038659814 0.5 L 112.46292038659814 3.5 L 119.46292038659814 0 L 112.46292038659814 -3.5 L 112.46292038659814 -0.5 L 96.73146019329907 -0.5 Z"/><text text-anchor="middle" pointer-events="none" font-size="8px" fill="#000000" x="68.73146019329907" y="3" transform="rotate(180 68.73146019329907 0)" font-family="Helvetica Neue, Helvetica, Arial, sans-serif">hasFirstAuthor</text></g><g class="relationship" transform="translate(282.7987527603497 477.8354419025905) rotate(336.19121188539054)"><path class="b-outline" fill="#A5ABB6" stroke="none" d="M 25 0.5 L 33.15561142101626 0.5 L 33.15561142101626 -0.5 L 25 -0.5 Z M 103.15561142101626 0.5 L 111.31122284203252 0.5 L 111.31122284203252 3.5 L 118.31122284203252 0 L 111.31122284203252 -3.5 L 111.31122284203252 -0.5 L 103.15561142101626 -0.5 Z"/><text text-anchor="middle" pointer-events="none" font-size="8px" fill="#000000" x="68.15561142101626" y="3" font-family="Helvetica Neue, Helvetica, Arial, sans-serif">hasPublicationYear</text></g><g class="relationship" transform="translate(252.65480667457427 337.1116160005042) rotate(437.9095871011253)"><path class="b-outline" fill="#A5ABB6" stroke="none" d="M 25 0.5 L 40.4580653265199 0.5 L 40.4580653265199 -0.5 L 25 -0.5 Z M 96.4580653265199 0.5 L 111.9161306530398 0.5 L 111.9161306530398 3.5 L 118.9161306530398 0 L 111.9161306530398 -3.5 L 111.9161306530398 -0.5 L 96.4580653265199 -0.5 Z"/><text text-anchor="middle" pointer-events="none" font-size="8px" fill="#000000" x="68.4580653265199" y="3" font-family="Helvetica Neue, Helvetica, Arial, sans-serif">hasFirstAuthor</text></g><g class="relationship" transform="translate(470.6887045058685 193.89059803733628) rotate(322.43306128726465)"><path class="b-outline" fill="#A5ABB6" stroke="none" d="M 25 0.5 L 32.52649888918661 0.5 L 32.52649888918661 -0.5 L 25 -0.5 Z M 102.52649888918661 0.5 L 110.05299777837322 0.5 L 110.05299777837322 3.5 L 117.05299777837322 0 L 110.05299777837322 -3.5 L 110.05299777837322 -0.5 L 102.52649888918661 -0.5 Z"/><text text-anchor="middle" pointer-events="none" font-size="8px" fill="#000000" x="67.52649888918661" y="3" font-family="Helvetica Neue, Helvetica, Arial, sans-serif">hasPublicationYear</text></g><g class="relationship" transform="translate(339.77359440556444 134.85196941479842) rotate(384.2738886647226)"><path class="b-outline" fill="#A5ABB6" stroke="none" d="M 25 0.5 L 40.3058593051512 0.5 L 40.3058593051512 -0.5 L 25 -0.5 Z M 96.3058593051512 0.5 L 111.6117186103024 0.5 L 111.6117186103024 3.5 L 118.6117186103024 0 L 111.6117186103024 -3.5 L 111.6117186103024 -0.5 L 96.3058593051512 -0.5 Z"/><text text-anchor="middle" pointer-events="none" font-size="8px" fill="#000000" x="68.3058593051512" y="3" font-family="Helvetica Neue, Helvetica, Arial, sans-serif">hasFirstAuthor</text></g><g class="relationship" transform="translate(396.1800603157345 -80.55944672458838) rotate(264.95624591621936)"><path class="b-outline" fill="#A5ABB6" stroke="none" d="M 25 0.5 L 35.32742032917622 0.5 L 35.32742032917622 -0.5 L 25 -0.5 Z M 105.32742032917622 0.5 L 115.65484065835244 0.5 L 115.65484065835244 3.5 L 122.65484065835244 0 L 115.65484065835244 -3.5 L 115.65484065835244 -0.5 L 105.32742032917622 -0.5 Z"/><text text-anchor="middle" pointer-events="none" font-size="8px" fill="#000000" x="70.32742032917622" y="3" transform="rotate(180 70.32742032917622 0)" font-family="Helvetica Neue, Helvetica, Arial, sans-serif">hasPublicationYear</text></g><g class="relationship" transform="translate(537.4348544432603 -107.3119437165162) rotate(529.2756708638178)"><path class="b-outline" fill="#A5ABB6" stroke="none" d="M 25 0.5 L 40.382913406651795 0.5 L 40.382913406651795 -0.5 L 25 -0.5 Z M 96.3829134066518 0.5 L 111.76582681330359 0.5 L 111.76582681330359 3.5 L 118.76582681330359 0 L 111.76582681330359 -3.5 L 111.76582681330359 -0.5 L 96.3829134066518 -0.5 Z"/><text text-anchor="middle" pointer-events="none" font-size="8px" fill="#000000" x="68.3829134066518" y="3" transform="rotate(180 68.3829134066518 0)" font-family="Helvetica Neue, Helvetica, Arial, sans-serif">hasFirstAuthor</text></g><g class="relationship" transform="translate(255.02785553179635 -140.22519423640654) rotate(325.7045510872787)"><path class="b-outline" fill="#A5ABB6" stroke="none" d="M 25 0.5 L 39.071864050540455 0.5 L 39.071864050540455 -0.5 L 25 -0.5 Z M 109.07186405054046 0.5 L 123.14372810108091 0.5 L 123.14372810108091 3.5 L 130.1437281010809 0 L 123.14372810108091 -3.5 L 123.14372810108091 -0.5 L 109.07186405054046 -0.5 Z"/><text text-anchor="middle" pointer-events="none" font-size="8px" fill="#000000" x="74.07186405054046" y="3" font-family="Helvetica Neue, Helvetica, Arial, sans-serif">hasPublicationYear</text></g><g class="relationship" transform="translate(203.39173800466298 -271.4002345838426) rotate(428.513275041744)"><path class="b-outline" fill="#A5ABB6" stroke="none" d="M 25 0.5 L 38.986133110398754 0.5 L 38.986133110398754 -0.5 L 25 -0.5 Z M 94.98613311039875 0.5 L 108.97226622079751 0.5 L 108.97226622079751 3.5 L 115.97226622079751 0 L 108.97226622079751 -3.5 L 108.97226622079751 -0.5 L 94.98613311039875 -0.5 Z"/><text text-anchor="middle" pointer-events="none" font-size="8px" fill="#000000" x="66.98613311039875" y="3" font-family="Helvetica Neue, Helvetica, Arial, sans-serif">hasFirstAuthor</text></g><g class="relationship" transform="translate(412.348754141349 -375.1483011054293) rotate(461.1787153348154)"><path class="b-outline" fill="#A5ABB6" stroke="none" d="M 25 0.5 L 36.679234975458215 0.5 L 36.679234975458215 -0.5 L 25 -0.5 Z M 106.67923497545821 0.5 L 118.35846995091643 0.5 L 118.35846995091643 3.5 L 125.35846995091643 0 L 118.35846995091643 -3.5 L 118.35846995091643 -0.5 L 106.67923497545821 -0.5 Z"/><text text-anchor="middle" pointer-events="none" font-size="8px" fill="#000000" x="71.67923497545821" y="3" transform="rotate(180 71.67923497545821 0)" font-family="Helvetica Neue, Helvetica, Arial, sans-serif">hasPublicationYear</text></g><g class="relationship" transform="translate(302.3372663484105 -468.55832775917804) rotate(400.3343662341023)"><path class="b-outline" fill="#A5ABB6" stroke="none" d="M 25 0.5 L 40.659477073129324 0.5 L 40.659477073129324 -0.5 L 25 -0.5 Z M 96.65947707312932 0.5 L 112.31895414625865 0.5 L 112.31895414625865 3.5 L 119.31895414625865 0 L 112.31895414625865 -3.5 L 112.31895414625865 -0.5 L 96.65947707312932 -0.5 Z"/><text text-anchor="middle" pointer-events="none" font-size="8px" fill="#000000" x="68.65947707312932" y="3" font-family="Helvetica Neue, Helvetica, Arial, sans-serif">hasFirstAuthor</text></g><g class="relationship" transform="translate(46.39956948286524 -366.717121395655) rotate(226.5350313070312)"><path class="b-outline" fill="#A5ABB6" stroke="none" d="M 25 0.5 L 35.3007676295866 0.5 L 35.3007676295866 -0.5 L 25 -0.5 Z M 105.3007676295866 0.5 L 115.6015352591732 0.5 L 115.6015352591732 3.5 L 122.6015352591732 0 L 115.6015352591732 -3.5 L 115.6015352591732 -0.5 L 105.3007676295866 -0.5 Z"/><text text-anchor="middle" pointer-events="none" font-size="8px" fill="#000000" x="70.3007676295866" y="3" transform="rotate(180 70.3007676295866 0)" font-family="Helvetica Neue, Helvetica, Arial, sans-serif">hasPublicationYear</text></g><g class="relationship" transform="translate(93.2849437149684 -503.89668506361045) rotate(468.8694555517156)"><path class="b-outline" fill="#A5ABB6" stroke="none" d="M 25 0.5 L 40.98529334460716 0.5 L 40.98529334460716 -0.5 L 25 -0.5 Z M 96.98529334460716 0.5 L 112.97058668921431 0.5 L 112.97058668921431 3.5 L 119.97058668921431 0 L 112.97058668921431 -3.5 L 112.97058668921431 -0.5 L 96.98529334460716 -0.5 Z"/><text text-anchor="middle" pointer-events="none" font-size="8px" fill="#000000" x="68.98529334460716" y="3" transform="rotate(180 68.98529334460716 0)" font-family="Helvetica Neue, Helvetica, Arial, sans-serif">hasFirstAuthor</text></g><g class="relationship" transform="translate(-104.24282737417269 -332.4860217131696) rotate(289.15627584501317)"><path class="b-outline" fill="#A5ABB6" stroke="none" d="M 25 0.5 L 36.32295220465488 0.5 L 36.32295220465488 -0.5 L 25 -0.5 Z M 106.32295220465488 0.5 L 117.64590440930976 0.5 L 117.64590440930976 3.5 L 124.64590440930976 0 L 117.64590440930976 -3.5 L 117.64590440930976 -0.5 L 106.32295220465488 -0.5 Z"/><text text-anchor="middle" pointer-events="none" font-size="8px" fill="#000000" x="71.32295220465488" y="3" font-family="Helvetica Neue, Helvetica, Arial, sans-serif">hasPublicationYear</text></g><g class="relationship" transform="translate(-192.48419679837318 -448.62535406757775) rotate(412.77283551944373)"><path class="b-outline" fill="#A5ABB6" stroke="none" d="M 25 0.5 L 41.429561560429505 0.5 L 41.429561560429505 -0.5 L 25 -0.5 Z M 97.4295615604295 0.5 L 113.85912312085901 0.5 L 113.85912312085901 3.5 L 120.85912312085901 0 L 113.85912312085901 -3.5 L 113.85912312085901 -0.5 L 97.4295615604295 -0.5 Z"/><text text-anchor="middle" pointer-events="none" font-size="8px" fill="#000000" x="69.4295615604295" y="3" font-family="Helvetica Neue, Helvetica, Arial, sans-serif">hasFirstAuthor</text></g><g class="relationship" transform="translate(-385.2479088284316 -386.31774094900584) rotate(493.1443224676561)"><path class="b-outline" fill="#A5ABB6" stroke="none" d="M 25 0.5 L 35.31678590512651 0.5 L 35.31678590512651 -0.5 L 25 -0.5 Z M 105.31678590512651 0.5 L 115.63357181025302 0.5 L 115.63357181025302 3.5 L 122.63357181025302 0 L 115.63357181025302 -3.5 L 115.63357181025302 -0.5 L 105.31678590512651 -0.5 Z"/><text text-anchor="middle" pointer-events="none" font-size="8px" fill="#000000" x="70.31678590512651" y="3" transform="rotate(180 70.31678590512651 0)" font-family="Helvetica Neue, Helvetica, Arial, sans-serif">hasPublicationYear</text></g><g class="relationship" transform="translate(-277.3151038530808 -289.60999107879456) rotate(221.86032707648542)"><path class="b-outline" fill="#A5ABB6" stroke="none" d="M 25 0.5 L 40.96012571546929 0.5 L 40.96012571546929 -0.5 L 25 -0.5 Z M 96.96012571546929 0.5 L 112.92025143093858 0.5 L 112.92025143093858 3.5 L 119.92025143093858 0 L 112.92025143093858 -3.5 L 112.92025143093858 -0.5 L 96.96012571546929 -0.5 Z"/><text text-anchor="middle" pointer-events="none" font-size="8px" fill="#000000" x="68.96012571546929" y="3" transform="rotate(180 68.96012571546929 0)" font-family="Helvetica Neue, Helvetica, Arial, sans-serif">hasFirstAuthor</text></g><g class="relationship" transform="translate(-382.8516933120815 -167.06307017981683) rotate(227.1806469057641)"><path class="b-outline" fill="#A5ABB6" stroke="none" d="M 25 0.5 L 37.53014473889915 0.5 L 37.53014473889915 -0.5 L 25 -0.5 Z M 107.53014473889915 0.5 L 120.0602894777983 0.5 L 120.0602894777983 3.5 L 127.0602894777983 0 L 120.0602894777983 -3.5 L 120.0602894777983 -0.5 L 107.53014473889915 -0.5 Z"/><text text-anchor="middle" pointer-events="none" font-size="8px" fill="#000000" x="72.53014473889915" y="3" transform="rotate(180 72.53014473889915 0)" font-family="Helvetica Neue, Helvetica, Arial, sans-serif">hasPublicationYear</text></g><g class="relationship" transform="translate(-260.163005397135 -84.01392808721857) rotate(214.0944456794017)"><path class="b-outline" fill="#A5ABB6" stroke="none" d="M 25 0.5 L 42.577112093763006 0.5 L 42.577112093763006 -0.5 L 25 -0.5 Z M 98.577112093763 0.5 L 116.15422418752601 0.5 L 116.15422418752601 3.5 L 123.15422418752601 0 L 116.15422418752601 -3.5 L 116.15422418752601 -0.5 L 98.577112093763 -0.5 Z"/><text text-anchor="middle" pointer-events="none" font-size="8px" fill="#000000" x="70.577112093763" y="3" transform="rotate(180 70.577112093763 0)" font-family="Helvetica Neue, Helvetica, Arial, sans-serif">hasFirstAuthor</text></g><g class="relationship" transform="translate(-611.161956249216 37.194714184861) rotate(395.2111528069668)"><path class="b-outline" fill="#A5ABB6" stroke="none" d="M 25 0.5 L 33.01612133170116 0.5 L 33.01612133170116 -0.5 L 25 -0.5 Z M 103.01612133170116 0.5 L 111.03224266340231 0.5 L 111.03224266340231 3.5 L 118.03224266340231 0 L 111.03224266340231 -3.5 L 111.03224266340231 -0.5 L 103.01612133170116 -0.5 Z"/><text text-anchor="middle" pointer-events="none" font-size="8px" fill="#000000" x="68.01612133170116" y="3" font-family="Helvetica Neue, Helvetica, Arial, sans-serif">hasPublicationYear</text></g><g class="relationship" transform="translate(-484.8368811498273 -28.70947804676783) rotate(512.4488079378066)"><path class="b-outline" fill="#A5ABB6" stroke="none" d="M 25 0.5 L 39.74146817789776 0.5 L 39.74146817789776 -0.5 L 25 -0.5 Z M 95.74146817789776 0.5 L 110.48293635579552 0.5 L 110.48293635579552 3.5 L 117.48293635579552 0 L 110.48293635579552 -3.5 L 110.48293635579552 -0.5 L 95.74146817789776 -0.5 Z"/><text text-anchor="middle" pointer-events="none" font-size="8px" fill="#000000" x="67.74146817789776" y="3" transform="rotate(180 67.74146817789776 0)" font-family="Helvetica Neue, Helvetica, Arial, sans-serif">hasFirstAuthor</text></g><g class="relationship" transform="translate(-470.07004881860684 322.92579657288877) rotate(384.00464437621235)"><path class="b-outline" fill="#A5ABB6" stroke="none" d="M 25 0.5 L 32.4174939755797 0.5 L 32.4174939755797 -0.5 L 25 -0.5 Z M 102.4174939755797 0.5 L 109.8349879511594 0.5 L 109.8349879511594 3.5 L 116.8349879511594 0 L 109.8349879511594 -3.5 L 109.8349879511594 -0.5 L 102.4174939755797 -0.5 Z"/><text text-anchor="middle" pointer-events="none" font-size="8px" fill="#000000" x="67.4174939755797" y="3" font-family="Helvetica Neue, Helvetica, Arial, sans-serif">hasPublicationYear</text></g><g class="relationship" transform="translate(-360.3272642218229 227.68472650045157) rotate(499.0466845818188)"><path class="b-outline" fill="#A5ABB6" stroke="none" d="M 25 0.5 L 41.15387154102494 0.5 L 41.15387154102494 -0.5 L 25 -0.5 Z M 97.15387154102494 0.5 L 113.30774308204988 0.5 L 113.30774308204988 3.5 L 120.30774308204988 0 L 113.30774308204988 -3.5 L 113.30774308204988 -0.5 L 97.15387154102494 -0.5 Z"/><text text-anchor="middle" pointer-events="none" font-size="8px" fill="#000000" x="69.15387154102494" y="3" transform="rotate(180 69.15387154102494 0)" font-family="Helvetica Neue, Helvetica, Arial, sans-serif">hasFirstAuthor</text></g><g class="relationship" transform="translate(-189.00411535550396 492.6166277801099) rotate(402.031284216108)"><path class="b-outline" fill="#A5ABB6" stroke="none" d="M 25 0.5 L 32.88568368688783 0.5 L 32.88568368688783 -0.5 L 25 -0.5 Z M 102.88568368688783 0.5 L 110.77136737377566 0.5 L 110.77136737377566 3.5 L 117.77136737377566 0 L 110.77136737377566 -3.5 L 110.77136737377566 -0.5 L 102.88568368688783 -0.5 Z"/><text text-anchor="middle" pointer-events="none" font-size="8px" fill="#000000" x="67.88568368688783" y="3" font-family="Helvetica Neue, Helvetica, Arial, sans-serif">hasPublicationYear</text></g><g class="relationship" transform="translate(-161.39103344083944 350.8651872043119) rotate(461.02313076564633)"><path class="b-outline" fill="#A5ABB6" stroke="none" d="M 25 0.5 L 40.70795177496031 0.5 L 40.70795177496031 -0.5 L 25 -0.5 Z M 96.7079517749603 0.5 L 112.41590354992061 0.5 L 112.41590354992061 3.5 L 119.41590354992061 0 L 112.41590354992061 -3.5 L 112.41590354992061 -0.5 L 96.7079517749603 -0.5 Z"/><text text-anchor="middle" pointer-events="none" font-size="8px" fill="#000000" x="68.7079517749603" y="3" transform="rotate(180 68.7079517749603 0)" font-family="Helvetica Neue, Helvetica, Arial, sans-serif">hasFirstAuthor</text></g></g><g class="layer nodes"><g class="node" aria-label="graph-node0" style="touch-action: none;" transform="translate(30.76301384375493,310.2018583270629)"><circle class="b-outline" cx="0" cy="0" r="25" fill="#F79767" stroke="#f36924" stroke-width="2px"/><text class="caption" text-anchor="middle" pointer-events="none" x="0" y="-10" font-size="10px" fill="#FFFFFF" font-family="Helvetica Neue, Helvetica, Arial, sans-serif"> A</text><text class="caption" text-anchor="middle" pointer-events="none" x="0" y="0" font-size="10px" fill="#FFFFFF" font-family="Helvetica Neue, Helvetica, Arial, sans-serif"> Simple</text><text class="caption" text-anchor="middle" pointer-events="none" x="0" y="10" font-size="10px" fill="#FFFFFF" font-family="Helvetica Neue, Helvetica, Arial, sans-serif"> Method</text><text class="caption" text-anchor="middle" pointer-events="none" x="0" y="20" font-size="10px" fill="#FFFFFF" font-family="Helvetica Neue, Helvetica, Arial, sans-serif">fo…</text></g><g class="node" aria-label="graph-node16" style="touch-action: none;" transform="translate(77.26848287292326,446.9745775257454)"><circle class="b-outline" cx="0" cy="0" r="25" fill="#FFC454" stroke="#d7a013" stroke-width="2px"/><text class="caption" text-anchor="middle" pointer-events="none" x="0" y="0" font-size="10px" fill="#2A2C34" font-family="Helvetica Neue, Helvetica, Arial, sans-serif"> Jordi</text><text class="caption" text-anchor="middle" pointer-events="none" x="0" y="10" font-size="10px" fill="#2A2C34" font-family="Helvetica Neue, Helvetica, Arial, sans-serif"> Folch</text></g><g class="node" aria-label="graph-node14" style="touch-action: none;" transform="translate(36.92069377112578,166.5419740029276)"><circle class="b-outline" cx="0" cy="0" r="25" fill="#ECB5C9" stroke="#da7298" stroke-width="2px"/><text class="caption" text-anchor="middle" pointer-events="none" x="0" y="5" font-size="10px" fill="#2A2C34" font-family="Helvetica Neue, Helvetica, Arial, sans-serif"> 1957</text></g><g class="node" aria-label="graph-node19" style="touch-action: none;" transform="translate(282.7987527603497,477.8354419025905)"><circle class="b-outline" cx="0" cy="0" r="25" fill="#F79767" stroke="#f36924" stroke-width="2px"/><text class="caption" text-anchor="middle" pointer-events="none" x="0" y="0" font-size="10px" fill="#FFFFFF" font-family="Helvetica Neue, Helvetica, Arial, sans-serif"> Antibiotic</text><text class="caption" text-anchor="middle" pointer-events="none" x="0" y="10" font-size="10px" fill="#FFFFFF" font-family="Helvetica Neue, Helvetica, Arial, sans-serif"> Susce…</text></g><g class="node" aria-label="graph-node27" style="touch-action: none;" transform="translate(252.65480667457427,337.1116160005042)"><circle class="b-outline" cx="0" cy="0" r="25" fill="#FFC454" stroke="#d7a013" stroke-width="2px"/><text class="caption" text-anchor="middle" pointer-events="none" x="0" y="0" font-size="10px" fill="#2A2C34" font-family="Helvetica Neue, Helvetica, Arial, sans-serif"> Alfred W.</text><text class="caption" text-anchor="middle" pointer-events="none" x="0" y="10" font-size="10px" fill="#2A2C34" font-family="Helvetica Neue, Helvetica, Arial, sans-serif"> Bauer</text></g><g class="node" aria-label="graph-node25" style="touch-action: none;" transform="translate(413.9138696203364,419.98276069185715)"><circle class="b-outline" cx="0" cy="0" r="25" fill="#ECB5C9" stroke="#da7298" stroke-width="2px"/><text class="caption" text-anchor="middle" pointer-events="none" x="0" y="5" font-size="10px" fill="#2A2C34" font-family="Helvetica Neue, Helvetica, Arial, sans-serif"> 1966</text></g><g class="node" aria-label="graph-node32" style="touch-action: none;" transform="translate(470.6887045058685,193.89059803733628)"><circle class="b-outline" cx="0" cy="0" r="25" fill="#F79767" stroke="#f36924" stroke-width="2px"/><text class="caption" text-anchor="middle" pointer-events="none" x="0" y="0" font-size="10px" fill="#FFFFFF" font-family="Helvetica Neue, Helvetica, Arial, sans-serif"> A</text><text class="caption" text-anchor="middle" pointer-events="none" x="0" y="10" font-size="10px" fill="#FFFFFF" font-family="Helvetica Neue, Helvetica, Arial, sans-serif"> proce…</text></g><g class="node" aria-label="graph-node59" style="touch-action: none;" transform="translate(339.77359440556444,134.85196941479842)"><circle class="b-outline" cx="0" cy="0" r="25" fill="#FFC454" stroke="#d7a013" stroke-width="2px"/><text class="caption" text-anchor="middle" pointer-events="none" x="0" y="0" font-size="10px" fill="#2A2C34" font-family="Helvetica Neue, Helvetica, Arial, sans-serif"> Julius</text><text class="caption" text-anchor="middle" pointer-events="none" x="0" y="10" font-size="10px" fill="#2A2C34" font-family="Helvetica Neue, Helvetica, Arial, sans-serif"> Marmur</text></g><g class="node" aria-label="graph-node58" style="touch-action: none;" transform="translate(583.285817459824,107.28260572567548)"><circle class="b-outline" cx="0" cy="0" r="25" fill="#ECB5C9" stroke="#da7298" stroke-width="2px"/><text class="caption" text-anchor="middle" pointer-events="none" x="0" y="5" font-size="10px" fill="#2A2C34" font-family="Helvetica Neue, Helvetica, Arial, sans-serif"> 1961</text></g><g class="node" aria-label="graph-node1325" style="touch-action: none;" transform="translate(396.1800603157345,-80.55944672458838)"><circle class="b-outline" cx="0" cy="0" r="25" fill="#F79767" stroke="#f36924" stroke-width="2px"/><text class="caption" text-anchor="middle" pointer-events="none" x="0" y="5" font-size="10px" fill="#FFFFFF" font-family="Helvetica Neue, Helvetica, Arial, sans-serif"> Acute-P…</text></g><g class="node" aria-label="graph-node1388" style="touch-action: none;" transform="translate(537.4348544432603,-107.3119437165162)"><circle class="b-outline" cx="0" cy="0" r="25" fill="#FFC454" stroke="#d7a013" stroke-width="2px"/><text class="caption" text-anchor="middle" pointer-events="none" x="0" y="0" font-size="10px" fill="#2A2C34" font-family="Helvetica Neue, Helvetica, Arial, sans-serif"> Cem</text><text class="caption" text-anchor="middle" pointer-events="none" x="0" y="10" font-size="10px" fill="#2A2C34" font-family="Helvetica Neue, Helvetica, Arial, sans-serif"> Gabay</text></g><g class="node" aria-label="graph-node116" style="touch-action: none;" transform="translate(383.198768809797,-227.64254582397956)"><circle class="b-outline" cx="0" cy="0" r="25" fill="#ECB5C9" stroke="#da7298" stroke-width="2px"/><text class="caption" text-anchor="middle" pointer-events="none" x="0" y="5" font-size="10px" fill="#2A2C34" font-family="Helvetica Neue, Helvetica, Arial, sans-serif"> 1999</text></g><g class="node" aria-label="graph-node997" style="touch-action: none;" transform="translate(255.02785553179635,-140.22519423640654)"><circle class="b-outline" cx="0" cy="0" r="25" fill="#F79767" stroke="#f36924" stroke-width="2px"/><text class="caption" text-anchor="middle" pointer-events="none" x="0" y="-5" font-size="10px" fill="#FFFFFF" font-family="Helvetica Neue, Helvetica, Arial, sans-serif"> Plant</text><text class="caption" text-anchor="middle" pointer-events="none" x="0" y="5" font-size="10px" fill="#FFFFFF" font-family="Helvetica Neue, Helvetica, Arial, sans-serif"> Products</text><text class="caption" text-anchor="middle" pointer-events="none" x="0" y="15" font-size="10px" fill="#FFFFFF" font-family="Helvetica Neue, Helvetica, Arial, sans-serif"> as A</text></g><g class="node" aria-label="graph-node1208" style="touch-action: none;" transform="translate(203.39173800466298,-271.4002345838426)"><circle class="b-outline" cx="0" cy="0" r="25" fill="#FFC454" stroke="#d7a013" stroke-width="2px"/><text class="caption" text-anchor="middle" pointer-events="none" x="0" y="0" font-size="10px" fill="#2A2C34" font-family="Helvetica Neue, Helvetica, Arial, sans-serif"> M. M.</text><text class="caption" text-anchor="middle" pointer-events="none" x="0" y="10" font-size="10px" fill="#2A2C34" font-family="Helvetica Neue, Helvetica, Arial, sans-serif"> Cowan</text></g><g class="node" aria-label="graph-node60" style="touch-action: none;" transform="translate(412.348754141349,-375.1483011054293)"><circle class="b-outline" cx="0" cy="0" r="25" fill="#F79767" stroke="#f36924" stroke-width="2px"/><text class="caption" text-anchor="middle" pointer-events="none" x="0" y="0" font-size="10px" fill="#FFFFFF" font-family="Helvetica Neue, Helvetica, Arial, sans-serif"> Bacterial</text><text class="caption" text-anchor="middle" pointer-events="none" x="0" y="10" font-size="10px" fill="#FFFFFF" font-family="Helvetica Neue, Helvetica, Arial, sans-serif"> Biofil…</text></g><g class="node" aria-label="graph-node118" style="touch-action: none;" transform="translate(302.3372663484105,-468.55832775917804)"><circle class="b-outline" cx="0" cy="0" r="25" fill="#FFC454" stroke="#d7a013" stroke-width="2px"/><text class="caption" text-anchor="middle" pointer-events="none" x="0" y="-5" font-size="10px" fill="#2A2C34" font-family="Helvetica Neue, Helvetica, Arial, sans-serif"> J.</text><text class="caption" text-anchor="middle" pointer-events="none" x="0" y="5" font-size="10px" fill="#2A2C34" font-family="Helvetica Neue, Helvetica, Arial, sans-serif"> William</text><text class="caption" text-anchor="middle" pointer-events="none" x="0" y="15" font-size="10px" fill="#2A2C34" font-family="Helvetica Neue, Helvetica, Arial, sans-serif"> Cos…</text></g><g class="node" aria-label="graph-node1243" style="touch-action: none;" transform="translate(46.39956948286524,-366.717121395655)"><circle class="b-outline" cx="0" cy="0" r="25" fill="#F79767" stroke="#f36924" stroke-width="2px"/><text class="caption" text-anchor="middle" pointer-events="none" x="0" y="0" font-size="10px" fill="#FFFFFF" font-family="Helvetica Neue, Helvetica, Arial, sans-serif"> Dietary</text><text class="caption" text-anchor="middle" pointer-events="none" x="0" y="10" font-size="10px" fill="#FFFFFF" font-family="Helvetica Neue, Helvetica, Arial, sans-serif"> Modu…</text></g><g class="node" aria-label="graph-node1318" style="touch-action: none;" transform="translate(93.2849437149684,-503.89668506361045)"><circle class="b-outline" cx="0" cy="0" r="25" fill="#FFC454" stroke="#d7a013" stroke-width="2px"/><text class="caption" text-anchor="middle" pointer-events="none" x="0" y="0" font-size="10px" fill="#2A2C34" font-family="Helvetica Neue, Helvetica, Arial, sans-serif"> Glenn R.</text><text class="caption" text-anchor="middle" pointer-events="none" x="0" y="10" font-size="10px" fill="#2A2C34" font-family="Helvetica Neue, Helvetica, Arial, sans-serif"> Gibson</text></g><g class="node" aria-label="graph-node556" style="touch-action: none;" transform="translate(-55.13714207928977,-473.8455929427124)"><circle class="b-outline" cx="0" cy="0" r="25" fill="#ECB5C9" stroke="#da7298" stroke-width="2px"/><text class="caption" text-anchor="middle" pointer-events="none" x="0" y="5" font-size="10px" fill="#2A2C34" font-family="Helvetica Neue, Helvetica, Arial, sans-serif"> 1995</text></g><g class="node" aria-label="graph-node506" style="touch-action: none;" transform="translate(-104.24282737417269,-332.4860217131696)"><circle class="b-outline" cx="0" cy="0" r="25" fill="#F79767" stroke="#f36924" stroke-width="2px"/><text class="caption" text-anchor="middle" pointer-events="none" x="0" y="5" font-size="10px" fill="#FFFFFF" font-family="Helvetica Neue, Helvetica, Arial, sans-serif"> Interpret…</text></g><g class="node" aria-label="graph-node558" style="touch-action: none;" transform="translate(-192.48419679837318,-448.62535406757775)"><circle class="b-outline" cx="0" cy="0" r="25" fill="#FFC454" stroke="#d7a013" stroke-width="2px"/><text class="caption" text-anchor="middle" pointer-events="none" x="0" y="0" font-size="10px" fill="#2A2C34" font-family="Helvetica Neue, Helvetica, Arial, sans-serif"> Fred C.</text><text class="caption" text-anchor="middle" pointer-events="none" x="0" y="10" font-size="10px" fill="#2A2C34" font-family="Helvetica Neue, Helvetica, Arial, sans-serif"> Tenov…</text></g><g class="node" aria-label="graph-node1575" style="touch-action: none;" transform="translate(-385.2479088284316,-386.31774094900584)"><circle class="b-outline" cx="0" cy="0" r="25" fill="#F79767" stroke="#f36924" stroke-width="2px"/><text class="caption" text-anchor="middle" pointer-events="none" x="0" y="5" font-size="10px" fill="#FFFFFF" font-family="Helvetica Neue, Helvetica, Arial, sans-serif"> Staphyl…</text></g><g class="node" aria-label="graph-node1692" style="touch-action: none;" transform="translate(-277.3151038530808,-289.60999107879456)"><circle class="b-outline" cx="0" cy="0" r="25" fill="#FFC454" stroke="#d7a013" stroke-width="2px"/><text class="caption" text-anchor="middle" pointer-events="none" x="0" y="0" font-size="10px" fill="#2A2C34" font-family="Helvetica Neue, Helvetica, Arial, sans-serif"> Franklin</text><text class="caption" text-anchor="middle" pointer-events="none" x="0" y="10" font-size="10px" fill="#2A2C34" font-family="Helvetica Neue, Helvetica, Arial, sans-serif"> Lo…</text></g><g class="node" aria-label="graph-node719" style="touch-action: none;" transform="translate(-486.2054148045815,-278.59934181251293)"><circle class="b-outline" cx="0" cy="0" r="25" fill="#ECB5C9" stroke="#da7298" stroke-width="2px"/><text class="caption" text-anchor="middle" pointer-events="none" x="0" y="5" font-size="10px" fill="#2A2C34" font-family="Helvetica Neue, Helvetica, Arial, sans-serif"> 1998</text></g><g class="node" aria-label="graph-node672" style="touch-action: none;" transform="translate(-382.8516933120815,-167.06307017981683)"><circle class="b-outline" cx="0" cy="0" r="25" fill="#F79767" stroke="#f36924" stroke-width="2px"/><text class="caption" text-anchor="middle" pointer-events="none" x="0" y="5" font-size="10px" fill="#FFFFFF" font-family="Helvetica Neue, Helvetica, Arial, sans-serif"> Deciphe…</text></g><g class="node" aria-label="graph-node720" style="touch-action: none;" transform="translate(-260.163005397135,-84.01392808721857)"><circle class="b-outline" cx="0" cy="0" r="25" fill="#FFC454" stroke="#d7a013" stroke-width="2px"/><text class="caption" text-anchor="middle" pointer-events="none" x="0" y="0" font-size="10px" fill="#2A2C34" font-family="Helvetica Neue, Helvetica, Arial, sans-serif"> Stewart</text><text class="caption" text-anchor="middle" pointer-events="none" x="0" y="10" font-size="10px" fill="#2A2C34" font-family="Helvetica Neue, Helvetica, Arial, sans-serif"> T. Cole</text></g><g class="node" aria-label="graph-node762" style="touch-action: none;" transform="translate(-611.161956249216,37.194714184861)"><circle class="b-outline" cx="0" cy="0" r="25" fill="#F79767" stroke="#f36924" stroke-width="2px"/><text class="caption" text-anchor="middle" pointer-events="none" x="0" y="-5" font-size="10px" fill="#FFFFFF" font-family="Helvetica Neue, Helvetica, Arial, sans-serif"> Human</text><text class="caption" text-anchor="middle" pointer-events="none" x="0" y="5" font-size="10px" fill="#FFFFFF" font-family="Helvetica Neue, Helvetica, Arial, sans-serif"> Malaria</text><text class="caption" text-anchor="middle" pointer-events="none" x="0" y="15" font-size="10px" fill="#FFFFFF" font-family="Helvetica Neue, Helvetica, Arial, sans-serif"> Paras</text></g><g class="node" aria-label="graph-node791" style="touch-action: none;" transform="translate(-484.8368811498273,-28.70947804676783)"><circle class="b-outline" cx="0" cy="0" r="25" fill="#FFC454" stroke="#d7a013" stroke-width="2px"/><text class="caption" text-anchor="middle" pointer-events="none" x="0" y="0" font-size="10px" fill="#2A2C34" font-family="Helvetica Neue, Helvetica, Arial, sans-serif"> William</text><text class="caption" text-anchor="middle" pointer-events="none" x="0" y="10" font-size="10px" fill="#2A2C34" font-family="Helvetica Neue, Helvetica, Arial, sans-serif"> Trager</text></g><g class="node" aria-label="graph-node790" style="touch-action: none;" transform="translate(-494.29993991997236,119.66587023827154)"><circle class="b-outline" cx="0" cy="0" r="25" fill="#ECB5C9" stroke="#da7298" stroke-width="2px"/><text class="caption" text-anchor="middle" pointer-events="none" x="0" y="5" font-size="10px" fill="#2A2C34" font-family="Helvetica Neue, Helvetica, Arial, sans-serif"> 1976</text></g><g class="node" aria-label="graph-node980" style="touch-action: none;" transform="translate(-470.07004881860684,322.92579657288877)"><circle class="b-outline" cx="0" cy="0" r="25" fill="#F79767" stroke="#f36924" stroke-width="2px"/><text class="caption" text-anchor="middle" pointer-events="none" x="0" y="-5" font-size="10px" fill="#FFFFFF" font-family="Helvetica Neue, Helvetica, Arial, sans-serif"> Report</text><text class="caption" text-anchor="middle" pointer-events="none" x="0" y="5" font-size="10px" fill="#FFFFFF" font-family="Helvetica Neue, Helvetica, Arial, sans-serif"> of the Ad</text><text class="caption" text-anchor="middle" pointer-events="none" x="0" y="15" font-size="10px" fill="#FFFFFF" font-family="Helvetica Neue, Helvetica, Arial, sans-serif"> Ho</text></g><g class="node" aria-label="graph-node985" style="touch-action: none;" transform="translate(-360.3272642218229,227.68472650045157)"><circle class="b-outline" cx="0" cy="0" r="25" fill="#FFC454" stroke="#d7a013" stroke-width="2px"/><text class="caption" text-anchor="middle" pointer-events="none" x="0" y="0" font-size="10px" fill="#2A2C34" font-family="Helvetica Neue, Helvetica, Arial, sans-serif"> Lawrence</text><text class="caption" text-anchor="middle" pointer-events="none" x="0" y="10" font-size="10px" fill="#2A2C34" font-family="Helvetica Neue, Helvetica, Arial, sans-serif"> Wa…</text></g><g class="node" aria-label="graph-node983" style="touch-action: none;" transform="translate(-340.5020165567122,380.62578637259463)"><circle class="b-outline" cx="0" cy="0" r="25" fill="#ECB5C9" stroke="#da7298" stroke-width="2px"/><text class="caption" text-anchor="middle" pointer-events="none" x="0" y="5" font-size="10px" fill="#2A2C34" font-family="Helvetica Neue, Helvetica, Arial, sans-serif"> 1987</text></g><g class="node" aria-label="graph-node1320" style="touch-action: none;" transform="translate(-189.00411535550396,492.6166277801099)"><circle class="b-outline" cx="0" cy="0" r="25" fill="#F79767" stroke="#f36924" stroke-width="2px"/><text class="caption" text-anchor="middle" pointer-events="none" x="0" y="0" font-size="10px" fill="#FFFFFF" font-family="Helvetica Neue, Helvetica, Arial, sans-serif"> Approved</text><text class="caption" text-anchor="middle" pointer-events="none" x="0" y="10" font-size="10px" fill="#FFFFFF" font-family="Helvetica Neue, Helvetica, Arial, sans-serif">B…</text></g><g class="node" aria-label="graph-node1322" style="touch-action: none;" transform="translate(-161.39103344083944,350.8651872043119)"><circle class="b-outline" cx="0" cy="0" r="25" fill="#FFC454" stroke="#d7a013" stroke-width="2px"/><text class="caption" text-anchor="middle" pointer-events="none" x="0" y="0" font-size="10px" fill="#2A2C34" font-family="Helvetica Neue, Helvetica, Arial, sans-serif"> V. B. D.</text><text class="caption" text-anchor="middle" pointer-events="none" x="0" y="10" font-size="10px" fill="#2A2C34" font-family="Helvetica Neue, Helvetica, Arial, sans-serif"> Skerm…</text></g><g class="node" aria-label="graph-node1321" style="touch-action: none;" transform="translate(-82.95649032945913,588.2072369847436)"><circle class="b-outline" cx="0" cy="0" r="25" fill="#ECB5C9" stroke="#da7298" stroke-width="2px"/><text class="caption" text-anchor="middle" pointer-events="none" x="0" y="5" font-size="10px" fill="#2A2C34" font-family="Helvetica Neue, Helvetica, Arial, sans-serif"> 1980</text></g></g></svg>